<svg width="93" height="57" viewBox="0 0 93 57" fill="none" xmlns="http://www.w3.org/2000/svg">
<g opacity="0.8" filter="url(#filter0_f_3156_4674)">
<path d="M46.54 23.8628C58.0579 23.8628 68.4645 25.4136 75.9746 27.9067C79.7323 29.1542 82.7378 30.6287 84.793 32.2417C86.8537 33.8592 87.8906 35.5579 87.8906 37.2563C87.8905 38.9547 86.8538 40.6535 84.793 42.271C82.7378 43.884 79.7323 45.3575 75.9746 46.605C68.4645 49.0981 58.0579 50.6489 46.54 50.6489C35.022 50.6489 24.6147 49.0982 17.1045 46.605C13.3471 45.3576 10.3422 43.8839 8.28711 42.271C6.22626 40.6535 5.1896 38.9547 5.18945 37.2563C5.18945 35.5579 6.22614 33.8593 8.28711 32.2417C10.3422 30.6287 13.3469 29.1542 17.1045 27.9067C24.6147 25.4136 35.022 23.8628 46.54 23.8628Z" stroke="url(#paint0_linear_3156_4674)"/>
</g>
<path d="M54.124 7.39111L59.6061 12.2628L52.3164 16.9311C73.5911 17.8727 90.0049 23.9234 90.0049 31.2434V21.6111C90.0049 14.4988 77.0946 8.52098 54.1287 7.39111H54.124Z" fill="url(#paint1_linear_3156_4674)"/>
<path d="M45.6009 7.19702L37.8693 2.6001L37.7757 7.46471C14.8142 8.6592 3 14.6278 3 21.6109V31.2432C3 24.2832 17.8403 18.477 37.5836 17.1109L37.5181 20.3924L45.4229 16.0955L53.3278 11.7986L45.6009 7.20164V7.19702Z" fill="url(#paint2_linear_3156_4674)"/>
<path d="M90 20.9307C90 28.906 70.5236 35.3722 46.5 35.3722C22.4764 35.3722 3 28.906 3 20.9307V30.563C3 38.5384 22.4764 45.0045 46.5 45.0045C70.5236 45.0045 90 38.5384 90 30.563V20.9307Z" fill="url(#paint3_linear_3156_4674)"/>
<path opacity="0.4" d="M54.1758 7.41309C74.5419 8.38212 90.0056 13.2909 90.0059 21.8486L89.9912 22.2266C89.3946 30.1248 70.1526 36.4658 46.5029 36.4658L45.3799 36.4619C21.8732 36.2618 3.00041 29.7954 3 21.8486C3.00026 13.2882 17.8941 8.52178 37.6992 7.45996L38.5537 8.41895C29.8029 8.84094 22.0159 9.976 16.0361 11.8223C12.1632 13.0181 9.11644 14.4906 7.05664 16.2021C5.01396 17.8996 3.99812 19.7781 3.99805 21.8486C3.99815 23.4333 4.95273 25.0993 7.03906 26.7568C9.11542 28.4063 12.182 29.9364 16.0596 31.2393C23.8045 33.8416 34.5682 35.4688 46.5029 35.4688C58.4376 35.4687 69.2014 33.8416 76.9463 31.2393C80.8237 29.9364 83.8895 28.4063 85.9658 26.7568C88.0524 25.0992 89.0077 23.4334 89.0078 21.8486C89.0077 19.8301 87.9969 17.9749 85.9502 16.2822C83.8887 14.5774 80.8402 13.0989 76.9668 11.8916C71.3082 10.1279 64.032 8.98575 55.8535 8.49902L54.1758 7.41309Z" fill="url(#paint4_linear_3156_4674)"/>
<path d="M29.4162 12.5479C31.2297 12.5479 32.7157 12.9928 33.8743 13.8828C35.0329 14.7727 35.6122 15.9061 35.6122 17.283C35.6122 19.1804 34.6131 20.5489 32.615 21.3884C33.6728 21.7074 34.5124 22.2196 35.1336 22.9248C35.7549 23.63 36.0655 24.5284 36.0655 25.6198C36.0655 27.1142 35.4695 28.3484 34.2773 29.3223C33.0851 30.2961 31.5235 30.7831 29.5925 30.7831C27.9302 30.7831 26.4946 30.548 25.2856 30.0779C24.0934 29.5909 22.9852 28.8605 21.9609 27.8866L23.6485 25.7457C25.294 27.3073 27.2502 28.0881 29.517 28.0881C30.4909 28.0881 31.3052 27.853 31.9601 27.3829C32.6317 26.8959 32.9676 26.2495 32.9676 25.4435C32.9676 24.5703 32.5982 23.9239 31.8593 23.5041C31.1205 23.0843 30.1466 22.8744 28.9377 22.8744H26.9479V20.3054H28.9125C30.0543 20.3054 30.9442 20.0871 31.5823 19.6505C32.2204 19.1972 32.5394 18.5591 32.5394 17.7363C32.5394 16.9975 32.2288 16.4014 31.6075 15.9481C31.003 15.4947 30.2054 15.268 29.2147 15.268C27.2837 15.268 25.6382 15.9229 24.2781 17.2326L22.6158 15.2177C24.4796 13.4378 26.7464 12.5479 29.4162 12.5479Z" fill="url(#paint5_linear_3156_4674)"/>
<path d="M45.6739 30.7831C43.6422 30.7831 42.0134 30.1702 40.7877 28.9445C40.0657 28.2224 39.5199 27.3409 39.1505 26.2998C38.7979 25.242 38.6216 23.8567 38.6216 22.144C38.6216 19.3399 39.2765 17.0395 40.5862 15.2428C41.9127 13.4462 43.7765 12.5479 46.1776 12.5479C48.1422 12.5479 49.9389 13.2027 51.5676 14.5124L49.9053 16.9052C48.5788 15.8809 47.3027 15.3688 46.0769 15.3688C44.8008 15.3688 43.7933 15.8893 43.0545 16.9304C42.3325 17.9546 41.9295 19.2979 41.8455 20.9602C43.0545 19.7849 44.4565 19.1972 46.0517 19.1972C47.8316 19.1972 49.3008 19.7009 50.4594 20.7084C51.6348 21.6991 52.2225 23.0591 52.2225 24.7886C52.2225 26.5181 51.5928 27.9538 50.3335 29.0956C49.0909 30.2206 47.5377 30.7831 45.6739 30.7831ZM45.5983 28.1133C46.673 28.1133 47.5293 27.811 48.1674 27.2066C48.8055 26.6021 49.1245 25.8213 49.1245 24.8642C49.1245 23.9743 48.7887 23.2438 48.117 22.6729C47.4622 22.0852 46.5974 21.7914 45.5228 21.7914C44.4482 21.7914 43.5834 22.0936 42.9285 22.6981C42.2737 23.3026 41.9463 24.0498 41.9463 24.9398C41.9463 25.8465 42.2821 26.6021 42.9537 27.2066C43.6254 27.811 44.5069 28.1133 45.5983 28.1133Z" fill="url(#paint6_linear_3156_4674)"/>
<path d="M62.5554 30.7831C60.2718 30.7831 58.4247 29.9183 57.0143 28.1888C55.6038 26.4426 54.8986 24.2681 54.8986 21.6655C54.8986 19.0964 55.6122 16.9387 57.0394 15.1925C58.4835 13.4294 60.3389 12.5479 62.6057 12.5479C64.8725 12.5479 66.7112 13.421 68.1216 15.1673C69.5489 16.9136 70.2625 19.0796 70.2625 21.6655C70.2625 24.2345 69.5405 26.4006 68.0965 28.1637C66.6692 29.9099 64.8222 30.7831 62.5554 30.7831ZM59.3314 26.1739C60.171 27.3829 61.2624 27.9874 62.6057 27.9874C63.949 27.9874 65.0237 27.3913 65.8296 26.1991C66.6524 24.9901 67.0638 23.4789 67.0638 21.6655C67.0638 19.8856 66.644 18.3912 65.8045 17.1822C64.9649 15.9565 63.8819 15.3436 62.5554 15.3436C61.2121 15.3436 60.129 15.9481 59.3063 17.157C58.5003 18.3492 58.0973 19.852 58.0973 21.6655C58.0973 23.4453 58.5087 24.9481 59.3314 26.1739Z" fill="url(#paint7_linear_3156_4674)"/>
<defs>
<filter id="filter0_f_3156_4674" x="0.689453" y="19.3628" width="91.7012" height="35.7866" filterUnits="userSpaceOnUse" color-interpolation-filters="sRGB">
<feFlood flood-opacity="0" result="BackgroundImageFix"/>
<feBlend mode="normal" in="SourceGraphic" in2="BackgroundImageFix" result="shape"/>
<feGaussianBlur stdDeviation="2" result="effect1_foregroundBlur_3156_4674"/>
</filter>
<linearGradient id="paint0_linear_3156_4674" x1="46.5398" y1="37.256" x2="46.5398" y2="51.1492" gradientUnits="userSpaceOnUse">
<stop stop-color="#72C9FF" stop-opacity="0"/>
<stop offset="1" stop-color="#75CAFF"/>
</linearGradient>
<linearGradient id="paint1_linear_3156_4674" x1="52.3164" y1="19.3173" x2="90.0049" y2="19.3173" gradientUnits="userSpaceOnUse">
<stop stop-color="#47B6FC"/>
<stop offset="0.421783" stop-color="#3B99D5"/>
<stop offset="1" stop-color="#12499B"/>
</linearGradient>
<linearGradient id="paint2_linear_3156_4674" x1="3" y1="16.9216" x2="53.3278" y2="16.9216" gradientUnits="userSpaceOnUse">
<stop stop-color="#12499B"/>
<stop offset="0.578217" stop-color="#3B99D5"/>
<stop offset="1" stop-color="#47B6FC"/>
</linearGradient>
<linearGradient id="paint3_linear_3156_4674" x1="3" y1="32.9676" x2="90" y2="32.9676" gradientUnits="userSpaceOnUse">
<stop stop-color="#1F5CB7"/>
<stop offset="0.225962" stop-color="#A6E3FF"/>
<stop offset="0.279372" stop-color="#C3E8FF"/>
<stop offset="0.341346" stop-color="#A6E4FF"/>
<stop offset="0.5" stop-color="#62BAF1"/>
<stop offset="0.706731" stop-color="#58CDFF"/>
<stop offset="0.836538" stop-color="#58BFFF"/>
<stop offset="1" stop-color="#1F5CB7"/>
</linearGradient>
<linearGradient id="paint4_linear_3156_4674" x1="50.6379" y1="10.3334" x2="44.5943" y2="35.7809" gradientUnits="userSpaceOnUse">
<stop stop-color="#2EAEFF"/>
<stop offset="1" stop-color="#F3FAFF"/>
</linearGradient>
<linearGradient id="paint5_linear_3156_4674" x1="46.6553" y1="16.3974" x2="46.6553" y2="38.4809" gradientUnits="userSpaceOnUse">
<stop stop-color="white"/>
<stop offset="1" stop-color="#538FBC"/>
</linearGradient>
<linearGradient id="paint6_linear_3156_4674" x1="46.6553" y1="16.3974" x2="46.6553" y2="38.4809" gradientUnits="userSpaceOnUse">
<stop stop-color="white"/>
<stop offset="1" stop-color="#538FBC"/>
</linearGradient>
<linearGradient id="paint7_linear_3156_4674" x1="46.6553" y1="16.3974" x2="46.6553" y2="38.4809" gradientUnits="userSpaceOnUse">
<stop stop-color="white"/>
<stop offset="1" stop-color="#538FBC"/>
</linearGradient>
</defs>
</svg>
