<svg width="22" height="20" viewBox="0 0 22 20" fill="none" xmlns="http://www.w3.org/2000/svg">
<mask id="path-1-inside-1_3153_7427" fill="white">
<path d="M22 9.46875C21.9727 11.0547 21.4941 12.4902 20.5645 13.7754C19.6348 15.0605 18.377 16.0859 16.791 16.8516C15.2324 17.5898 13.4688 17.9727 11.5 18C9.96875 18 8.54688 17.7539 7.23438 17.2617C6.71484 17.6445 5.97656 18.0684 5.01953 18.5332C3.98047 18.998 2.85938 19.2578 1.65625 19.3125C1.38281 19.3125 1.17773 19.1758 1.04102 18.9023C0.958984 18.6289 1.01367 18.3965 1.20508 18.2051V18.1641C1.20508 18.1641 1.21875 18.1504 1.24609 18.123C1.30078 18.0684 1.36914 17.9863 1.45117 17.877C1.64258 17.6855 1.84766 17.3984 2.06641 17.0156C2.53125 16.3047 2.83203 15.4434 2.96875 14.4316C1.68359 13.0098 1.02734 11.3555 1 9.46875C1.02734 7.88281 1.50586 6.44727 2.43555 5.16211C3.36523 3.87695 4.62305 2.85156 6.20898 2.08594C7.76758 1.34766 9.53125 0.964844 11.5 0.9375C13.4688 0.964844 15.2324 1.34766 16.791 2.08594C18.377 2.85156 19.6348 3.87695 20.5645 5.16211C21.4941 6.44727 21.9727 7.88281 22 9.46875Z"/>
</mask>
<path d="M22 9.46875C21.9727 11.0547 21.4941 12.4902 20.5645 13.7754C19.6348 15.0605 18.377 16.0859 16.791 16.8516C15.2324 17.5898 13.4688 17.9727 11.5 18C9.96875 18 8.54688 17.7539 7.23438 17.2617C6.71484 17.6445 5.97656 18.0684 5.01953 18.5332C3.98047 18.998 2.85938 19.2578 1.65625 19.3125C1.38281 19.3125 1.17773 19.1758 1.04102 18.9023C0.958984 18.6289 1.01367 18.3965 1.20508 18.2051V18.1641C1.20508 18.1641 1.21875 18.1504 1.24609 18.123C1.30078 18.0684 1.36914 17.9863 1.45117 17.877C1.64258 17.6855 1.84766 17.3984 2.06641 17.0156C2.53125 16.3047 2.83203 15.4434 2.96875 14.4316C1.68359 13.0098 1.02734 11.3555 1 9.46875C1.02734 7.88281 1.50586 6.44727 2.43555 5.16211C3.36523 3.87695 4.62305 2.85156 6.20898 2.08594C7.76758 1.34766 9.53125 0.964844 11.5 0.9375C13.4688 0.964844 15.2324 1.34766 16.791 2.08594C18.377 2.85156 19.6348 3.87695 20.5645 5.16211C21.4941 6.44727 21.9727 7.88281 22 9.46875Z" fill="white"/>
<path d="M22 9.46875C21.9727 11.0547 21.4941 12.4902 20.5645 13.7754C19.6348 15.0605 18.377 16.0859 16.791 16.8516C15.2324 17.5898 13.4688 17.9727 11.5 18C9.96875 18 8.54688 17.7539 7.23438 17.2617C6.71484 17.6445 5.97656 18.0684 5.01953 18.5332C3.98047 18.998 2.85938 19.2578 1.65625 19.3125C1.38281 19.3125 1.17773 19.1758 1.04102 18.9023C0.958984 18.6289 1.01367 18.3965 1.20508 18.2051V18.1641C1.20508 18.1641 1.21875 18.1504 1.24609 18.123C1.30078 18.0684 1.36914 17.9863 1.45117 17.877C1.64258 17.6855 1.84766 17.3984 2.06641 17.0156C2.53125 16.3047 2.83203 15.4434 2.96875 14.4316C1.68359 13.0098 1.02734 11.3555 1 9.46875C1.02734 7.88281 1.50586 6.44727 2.43555 5.16211C3.36523 3.87695 4.62305 2.85156 6.20898 2.08594C7.76758 1.34766 9.53125 0.964844 11.5 0.9375C13.4688 0.964844 15.2324 1.34766 16.791 2.08594C18.377 2.85156 19.6348 3.87695 20.5645 5.16211C21.4941 6.44727 21.9727 7.88281 22 9.46875Z" fill="url(#paint0_linear_3153_7427)"/>
<path d="M22 9.46875L22.9999 9.48599L23.0001 9.46875L22.9999 9.45151L22 9.46875ZM16.791 16.8516L17.2191 17.7553L17.2258 17.7521L16.791 16.8516ZM11.5 18V19.0001L11.5139 18.9999L11.5 18ZM7.23438 17.2617L7.5855 16.3254L7.07774 16.135L6.64118 16.4567L7.23438 17.2617ZM5.01953 18.5332L5.4279 19.446L5.44227 19.4396L5.45644 19.4327L5.01953 18.5332ZM1.65625 19.3125V20.3125H1.67897L1.70166 20.3115L1.65625 19.3125ZM1.04102 18.9023L0.0831894 19.1897L0.10799 19.2724L0.146588 19.3496L1.04102 18.9023ZM1.20508 18.2051L1.91218 18.9122L2.20508 18.6193V18.2051H1.20508ZM1.20508 18.1641L0.497971 17.457L0.205078 17.7498V18.1641H1.20508ZM1.45117 17.877L0.744065 17.1698L0.693813 17.2201L0.651172 17.277L1.45117 17.877ZM2.06641 17.0156L1.22944 16.4684L1.21303 16.4935L1.19816 16.5195L2.06641 17.0156ZM2.96875 14.4316L3.95974 14.5656L4.02191 14.1055L3.71062 13.7611L2.96875 14.4316ZM1 9.46875L0.000148594 9.45151L-0.000124931 9.46738L0.000105023 9.48324L1 9.46875ZM6.20898 2.08594L5.78089 1.18218L5.77424 1.18539L6.20898 2.08594ZM11.5 0.9375L11.5139 -0.0624036L11.5 -0.0625964L11.4861 -0.0624036L11.5 0.9375ZM16.791 2.08594L17.2258 1.18536L17.2191 1.1822L16.791 2.08594ZM22 9.46875L21.0001 9.45151C20.9763 10.8329 20.564 12.0699 19.7542 13.1893L20.5645 13.7754L21.3747 14.3615C22.4243 12.9106 22.969 11.2765 22.9999 9.48599L22 9.46875ZM20.5645 13.7754L19.7542 13.1893C18.9321 14.3258 17.8097 15.2494 16.3563 15.951L16.791 16.8516L17.2258 17.7521C18.9442 16.9225 20.3375 15.7953 21.3747 14.3615L20.5645 13.7754ZM16.791 16.8516L16.3629 15.9478C14.9511 16.6166 13.3318 16.9745 11.4861 17.0001L11.5 18L11.5139 18.9999C13.6057 18.9708 15.5138 18.5631 17.2191 17.7553L16.791 16.8516ZM11.5 18V17C10.0776 17 8.77579 16.7717 7.5855 16.3254L7.23438 17.2617L6.88325 18.198C8.31796 18.7361 9.85993 19 11.5 19V18ZM7.23438 17.2617L6.64118 16.4567C6.19199 16.7876 5.51514 17.1808 4.58263 17.6337L5.01953 18.5332L5.45644 19.4327C6.43799 18.956 7.2377 18.5014 7.82757 18.0668L7.23438 17.2617ZM5.01953 18.5332L4.61117 17.6204C3.69315 18.0311 2.69601 18.2642 1.61084 18.3135L1.65625 19.3125L1.70166 20.3115C3.02274 20.2514 4.26778 19.965 5.4279 19.446L5.01953 18.5332ZM1.65625 19.3125V18.3125C1.69452 18.3125 1.77261 18.3249 1.85206 18.3779C1.92526 18.4267 1.94449 18.4732 1.93544 18.4551L1.04102 18.9023L0.146588 19.3496C0.274263 19.6049 0.464389 19.8565 0.742663 20.042C1.0272 20.2317 1.34455 20.3125 1.65625 20.3125V19.3125ZM1.04102 18.9023L1.99884 18.615C1.9983 18.6132 2.0139 18.6671 1.99392 18.752C1.9732 18.8401 1.92996 18.8944 1.91218 18.9122L1.20508 18.2051L0.497971 17.498C0.28879 17.7072 0.122508 17.9734 0.0470906 18.2939C-0.0275695 18.6112 0.00170201 18.9181 0.0831894 19.1897L1.04102 18.9023ZM1.20508 18.2051H2.20508V18.1641H1.20508H0.205078V18.2051H1.20508ZM1.20508 18.1641C1.91218 18.8712 1.91218 18.8712 1.91219 18.8712C1.91219 18.8712 1.91219 18.8712 1.91219 18.8712C1.91219 18.8712 1.91219 18.8712 1.91219 18.8712C1.91219 18.8712 1.91219 18.8712 1.91219 18.8712C1.91219 18.8712 1.91219 18.8712 1.91219 18.8712C1.91219 18.8712 1.91219 18.8712 1.91219 18.8712C1.91219 18.8712 1.91219 18.8712 1.91219 18.8712C1.91219 18.8712 1.91219 18.8712 1.91219 18.8712C1.9122 18.8712 1.9122 18.8712 1.9122 18.8712C1.9122 18.8712 1.9122 18.8712 1.9122 18.8712C1.9122 18.8712 1.9122 18.8712 1.9122 18.8712C1.9122 18.8711 1.91221 18.8711 1.91221 18.8711C1.91221 18.8711 1.91221 18.8711 1.91221 18.8711C1.91221 18.8711 1.91221 18.8711 1.91222 18.8711C1.91222 18.8711 1.91222 18.8711 1.91222 18.8711C1.91222 18.8711 1.91222 18.8711 1.91222 18.8711C1.91223 18.8711 1.91223 18.8711 1.91223 18.8711C1.91223 18.8711 1.91223 18.8711 1.91224 18.8711C1.91224 18.8711 1.91224 18.8711 1.91224 18.8711C1.91224 18.8711 1.91225 18.8711 1.91225 18.8711C1.91225 18.8711 1.91225 18.8711 1.91225 18.8711C1.91226 18.8711 1.91226 18.8711 1.91226 18.8711C1.91226 18.8711 1.91227 18.8711 1.91227 18.8711C1.91227 18.8711 1.91227 18.8711 1.91228 18.8711C1.91228 18.8711 1.91228 18.8711 1.91228 18.8711C1.91229 18.8711 1.91229 18.8711 1.91229 18.8711C1.91229 18.8711 1.9123 18.8711 1.9123 18.8711C1.9123 18.8711 1.9123 18.871 1.91231 18.871C1.91231 18.871 1.91231 18.871 1.91232 18.871C1.91232 18.871 1.91232 18.871 1.91233 18.871C1.91233 18.871 1.91233 18.871 1.91234 18.871C1.91234 18.871 1.91234 18.871 1.91235 18.871C1.91235 18.871 1.91235 18.871 1.91236 18.871C1.91236 18.871 1.91236 18.871 1.91237 18.871C1.91237 18.871 1.91237 18.871 1.91238 18.871C1.91238 18.871 1.91238 18.871 1.91239 18.871C1.91239 18.871 1.9124 18.871 1.9124 18.871C1.9124 18.871 1.91241 18.8709 1.91241 18.8709C1.91241 18.8709 1.91242 18.8709 1.91242 18.8709C1.91243 18.8709 1.91243 18.8709 1.91244 18.8709C1.91244 18.8709 1.91244 18.8709 1.91245 18.8709C1.91245 18.8709 1.91246 18.8709 1.91246 18.8709C1.91247 18.8709 1.91247 18.8709 1.91247 18.8709C1.91248 18.8709 1.91248 18.8709 1.91249 18.8709C1.91249 18.8709 1.9125 18.8709 1.9125 18.8709C1.91251 18.8708 1.91251 18.8708 1.91252 18.8708C1.91252 18.8708 1.91253 18.8708 1.91253 18.8708C1.91254 18.8708 1.91254 18.8708 1.91255 18.8708C1.91255 18.8708 1.91256 18.8708 1.91256 18.8708C1.91257 18.8708 1.91257 18.8708 1.91258 18.8708C1.91258 18.8708 1.91259 18.8708 1.91259 18.8708C1.9126 18.8708 1.9126 18.8708 1.91261 18.8707C1.91261 18.8707 1.91262 18.8707 1.91262 18.8707C1.91263 18.8707 1.91264 18.8707 1.91264 18.8707C1.91265 18.8707 1.91265 18.8707 1.91266 18.8707C1.91266 18.8707 1.91267 18.8707 1.91268 18.8707C1.91268 18.8707 1.91269 18.8707 1.91269 18.8707C1.9127 18.8707 1.91271 18.8706 1.91271 18.8706C1.91272 18.8706 1.91272 18.8706 1.91273 18.8706C1.91274 18.8706 1.91274 18.8706 1.91275 18.8706C1.91275 18.8706 1.91276 18.8706 1.91277 18.8706C1.91277 18.8706 1.91278 18.8706 1.91279 18.8706C1.91279 18.8706 1.9128 18.8706 1.91281 18.8705C1.91281 18.8705 1.91282 18.8705 1.91283 18.8705C1.91283 18.8705 1.91284 18.8705 1.91285 18.8705C1.91285 18.8705 1.91286 18.8705 1.91287 18.8705C1.91287 18.8705 1.91288 18.8705 1.91289 18.8705C1.91289 18.8705 1.9129 18.8705 1.91291 18.8704C1.91292 18.8704 1.91292 18.8704 1.91293 18.8704C1.91294 18.8704 1.91294 18.8704 1.91295 18.8704C1.91296 18.8704 1.91297 18.8704 1.91297 18.8704C1.91298 18.8704 1.91299 18.8704 1.913 18.8704C1.913 18.8703 1.91301 18.8703 1.91302 18.8703C1.91303 18.8703 1.91303 18.8703 1.91304 18.8703C1.91305 18.8703 1.91306 18.8703 1.91307 18.8703C1.91307 18.8703 1.91308 18.8703 1.91309 18.8703C1.9131 18.8703 1.9131 18.8702 1.91311 18.8702C1.91312 18.8702 1.91313 18.8702 1.91314 18.8702C1.91314 18.8702 1.91315 18.8702 1.91316 18.8702C1.91317 18.8702 1.91318 18.8702 1.91319 18.8702C1.91319 18.8702 1.9132 18.8702 1.91321 18.8701C1.91322 18.8701 1.91323 18.8701 1.91324 18.8701C1.91325 18.8701 1.91325 18.8701 1.91326 18.8701C1.91327 18.8701 1.91328 18.8701 1.91329 18.8701C1.9133 18.8701 1.91331 18.87 1.91332 18.87C1.91332 18.87 1.91333 18.87 1.91334 18.87C1.91335 18.87 1.91336 18.87 1.91337 18.87C1.91338 18.87 1.91339 18.87 1.9134 18.87C1.91341 18.8699 1.91341 18.8699 1.91342 18.8699C1.91343 18.8699 1.91344 18.8699 1.91345 18.8699C1.91346 18.8699 1.91347 18.8699 1.91348 18.8699C1.91349 18.8699 1.9135 18.8699 1.91351 18.8698C1.91352 18.8698 1.91353 18.8698 1.91354 18.8698C1.91355 18.8698 1.91356 18.8698 1.91357 18.8698C1.91358 18.8698 1.91359 18.8698 1.9136 18.8698C1.91361 18.8697 1.91362 18.8697 1.91363 18.8697C1.91364 18.8697 1.91365 18.8697 1.91366 18.8697C1.91367 18.8697 1.91368 18.8697 1.91369 18.8697C1.9137 18.8697 1.91371 18.8696 1.91372 18.8696C1.91373 18.8696 1.91374 18.8696 1.91375 18.8696C1.91376 18.8696 1.91377 18.8696 1.91378 18.8696C1.91379 18.8696 1.9138 18.8696 1.91381 18.8695C1.91382 18.8695 1.91383 18.8695 1.91384 18.8695C1.91386 18.8695 1.91387 18.8695 1.91388 18.8695C1.91389 18.8695 1.9139 18.8695 1.91391 18.8694C1.91392 18.8694 1.91393 18.8694 1.91394 18.8694C1.91395 18.8694 1.91397 18.8694 1.91398 18.8694C1.91399 18.8694 1.914 18.8694 1.91401 18.8693C1.91402 18.8693 1.91403 18.8693 1.91404 18.8693C1.91406 18.8693 1.91407 18.8693 1.91408 18.8693C1.91409 18.8693 1.9141 18.8693 1.91411 18.8692C1.91412 18.8692 1.91414 18.8692 1.91415 18.8692C1.91416 18.8692 1.91417 18.8692 1.91418 18.8692C1.91419 18.8692 1.91421 18.8691 1.91422 18.8691C1.91423 18.8691 1.91424 18.8691 1.91425 18.8691C1.91427 18.8691 1.91428 18.8691 1.91429 18.8691C1.9143 18.8691 1.91431 18.869 1.91433 18.869C1.91434 18.869 1.91435 18.869 1.91436 18.869C1.91438 18.869 1.91439 18.869 1.9144 18.869C1.91441 18.8689 1.91443 18.8689 1.91444 18.8689C1.91445 18.8689 1.91446 18.8689 1.91448 18.8689C1.91449 18.8689 1.9145 18.8689 1.91451 18.8688C1.91453 18.8688 1.91454 18.8688 1.91455 18.8688C1.91456 18.8688 1.91458 18.8688 1.91459 18.8688C1.9146 18.8688 1.91462 18.8687 1.91463 18.8687C1.91464 18.8687 1.91466 18.8687 1.91467 18.8687C1.91468 18.8687 1.9147 18.8687 1.91471 18.8686C1.91472 18.8686 1.91474 18.8686 1.91475 18.8686C1.91476 18.8686 1.91478 18.8686 1.91479 18.8686C1.9148 18.8686 1.91482 18.8685 1.91483 18.8685C1.91484 18.8685 1.91486 18.8685 1.91487 18.8685C1.91488 18.8685 1.9149 18.8685 1.91491 18.8684C1.91492 18.8684 1.91494 18.8684 1.91495 18.8684C1.91497 18.8684 1.91498 18.8684 1.91499 18.8684C1.91501 18.8683 1.91502 18.8683 1.91504 18.8683C1.91505 18.8683 1.91506 18.8683 1.91508 18.8683C1.91509 18.8683 1.91511 18.8682 1.91512 18.8682C1.91514 18.8682 1.91515 18.8682 1.91516 18.8682C1.91518 18.8682 1.91519 18.8682 1.91521 18.8681C1.91522 18.8681 1.91524 18.8681 1.91525 18.8681C1.91527 18.8681 1.91528 18.8681 1.9153 18.8681C1.91531 18.868 1.91532 18.868 1.91534 18.868C1.91535 18.868 1.91537 18.868 1.91538 18.868C1.9154 18.868 1.91541 18.8679 1.91543 18.8679C1.91544 18.8679 1.91546 18.8679 1.91547 18.8679C1.91549 18.8679 1.9155 18.8678 1.91552 18.8678C1.91554 18.8678 1.91555 18.8678 1.91557 18.8678C1.91558 18.8678 1.9156 18.8678 1.91561 18.8677C1.91563 18.8677 1.91564 18.8677 1.91566 18.8677C1.91567 18.8677 1.91569 18.8677 1.91571 18.8676C1.91572 18.8676 1.91574 18.8676 1.91575 18.8676C1.91577 18.8676 1.91578 18.8676 1.9158 18.8676C1.91582 18.8675 1.91583 18.8675 1.91585 18.8675C1.91586 18.8675 1.91588 18.8675 1.9159 18.8675C1.91591 18.8674 1.91593 18.8674 1.91594 18.8674C1.91596 18.8674 1.91598 18.8674 1.91599 18.8674C1.91601 18.8673 1.91603 18.8673 1.91604 18.8673C1.91606 18.8673 1.91607 18.8673 1.91609 18.8673C1.91611 18.8672 1.91612 18.8672 1.91614 18.8672C1.91616 18.8672 1.91617 18.8672 1.91619 18.8672C1.91621 18.8671 1.91622 18.8671 1.91624 18.8671C1.91626 18.8671 1.91627 18.8671 1.91629 18.8671C1.91631 18.867 1.91632 18.867 1.91634 18.867C1.91636 18.867 1.91638 18.867 1.91639 18.867C1.91641 18.8669 1.91643 18.8669 1.91644 18.8669C1.91646 18.8669 1.91648 18.8669 1.9165 18.8669C1.91651 18.8668 1.91653 18.8668 1.91655 18.8668C1.91657 18.8668 1.91658 18.8668 1.9166 18.8668C1.91662 18.8667 1.91664 18.8667 1.91665 18.8667C1.91667 18.8667 1.91669 18.8667 1.91671 18.8666C1.91672 18.8666 1.91674 18.8666 1.91676 18.8666C1.91678 18.8666 1.9168 18.8666 1.91681 18.8665C1.91683 18.8665 1.91685 18.8665 1.91687 18.8665C1.91689 18.8665 1.9169 18.8665 1.91692 18.8664C1.91694 18.8664 1.91696 18.8664 1.91698 18.8664C1.91699 18.8664 1.91701 18.8663 1.91703 18.8663C1.91705 18.8663 1.91707 18.8663 1.91709 18.8663C1.91711 18.8662 1.91712 18.8662 1.91714 18.8662C1.91716 18.8662 1.91718 18.8662 1.9172 18.8662C1.91722 18.8661 1.91724 18.8661 1.91725 18.8661C1.91727 18.8661 1.91729 18.8661 1.91731 18.866C1.91733 18.866 1.91735 18.866 1.91737 18.866C1.91739 18.866 1.91741 18.8659 1.91742 18.8659C1.91744 18.8659 1.91746 18.8659 1.91748 18.8659C1.9175 18.8659 1.91752 18.8658 1.91754 18.8658C1.91756 18.8658 1.91758 18.8658 1.9176 18.8658C1.91762 18.8657 1.91764 18.8657 1.91766 18.8657C1.91768 18.8657 1.9177 18.8657 1.91771 18.8656C1.91773 18.8656 1.91775 18.8656 1.91777 18.8656C1.91779 18.8656 1.91781 18.8655 1.91783 18.8655C1.91785 18.8655 1.91787 18.8655 1.91789 18.8655C1.91791 18.8654 1.91793 18.8654 1.91795 18.8654C1.91797 18.8654 1.91799 18.8654 1.91801 18.8653C1.91803 18.8653 1.91805 18.8653 1.91807 18.8653C1.91809 18.8653 1.91811 18.8652 1.91813 18.8652C1.91815 18.8652 1.91818 18.8652 1.9182 18.8652C1.91822 18.8651 1.91824 18.8651 1.91826 18.8651C1.91828 18.8651 1.9183 18.8651 1.91832 18.865C1.91834 18.865 1.91836 18.865 1.91838 18.865C1.9184 18.865 1.91842 18.8649 1.91844 18.8649C1.91846 18.8649 1.91849 18.8649 1.91851 18.8648C1.91853 18.8648 1.91855 18.8648 1.91857 18.8648C1.91859 18.8648 1.91861 18.8647 1.91863 18.8647C1.91865 18.8647 1.91867 18.8647 1.9187 18.8647C1.91872 18.8646 1.91874 18.8646 1.91876 18.8646C1.91878 18.8646 1.9188 18.8646 1.91882 18.8645C1.91885 18.8645 1.91887 18.8645 1.91889 18.8645C1.91891 18.8644 1.91893 18.8644 1.91895 18.8644C1.91898 18.8644 1.919 18.8644 1.91902 18.8643C1.91904 18.8643 1.91906 18.8643 1.91908 18.8643C1.91911 18.8642 1.91913 18.8642 1.91915 18.8642C1.91917 18.8642 1.91919 18.8642 1.91922 18.8641C1.91924 18.8641 1.91926 18.8641 1.91928 18.8641C1.91931 18.864 1.91933 18.864 1.91935 18.864C1.91937 18.864 1.91939 18.864 1.91942 18.8639C1.91944 18.8639 1.91946 18.8639 1.91948 18.8639C1.91951 18.8638 1.91953 18.8638 1.91955 18.8638C1.91958 18.8638 1.9196 18.8638 1.91962 18.8637C1.91964 18.8637 1.91967 18.8637 1.91969 18.8637C1.91971 18.8636 1.91973 18.8636 1.91976 18.8636C1.91978 18.8636 1.9198 18.8636 1.91983 18.8635C1.91985 18.8635 1.91987 18.8635 1.9199 18.8635C1.91992 18.8634 1.91994 18.8634 1.91997 18.8634C1.91999 18.8634 1.92001 18.8633 1.92004 18.8633C1.92006 18.8633 1.92008 18.8633 1.92011 18.8632C1.92013 18.8632 1.92015 18.8632 1.92018 18.8632C1.9202 18.8632 1.92022 18.8631 1.92025 18.8631C1.92027 18.8631 1.92029 18.8631 1.92032 18.863C1.92034 18.863 1.92037 18.863 1.92039 18.863C1.92041 18.8629 1.92044 18.8629 1.92046 18.8629C1.92049 18.8629 1.92051 18.8628 1.92053 18.8628C1.92056 18.8628 1.92058 18.8628 1.92061 18.8627C1.92063 18.8627 1.92065 18.8627 1.92068 18.8627C1.9207 18.8626 1.92073 18.8626 1.92075 18.8626C1.92078 18.8626 1.9208 18.8626 1.92083 18.8625C1.92085 18.8625 1.92087 18.8625 1.9209 18.8625C1.92092 18.8624 1.92095 18.8624 1.92097 18.8624C1.921 18.8624 1.92102 18.8623 1.92105 18.8623C1.92107 18.8623 1.9211 18.8623 1.92112 18.8622C1.92115 18.8622 1.92117 18.8622 1.9212 18.8622C1.92122 18.8621 1.92125 18.8621 1.92127 18.8621C1.9213 18.8621 1.92132 18.862 1.92135 18.862C1.92137 18.862 1.9214 18.862 1.92142 18.8619C1.92145 18.8619 1.92147 18.8619 1.9215 18.8619C1.92153 18.8618 1.92155 18.8618 1.92158 18.8618C1.9216 18.8618 1.92163 18.8617 1.92165 18.8617C1.92168 18.8617 1.9217 18.8616 1.92173 18.8616C1.92176 18.8616 1.92178 18.8616 1.92181 18.8615C1.92183 18.8615 1.92186 18.8615 1.92189 18.8615C1.92191 18.8614 1.92194 18.8614 1.92196 18.8614C1.92199 18.8614 1.92202 18.8613 1.92204 18.8613C1.92207 18.8613 1.92209 18.8613 1.92212 18.8612C1.92215 18.8612 1.92217 18.8612 1.9222 18.8612C1.92223 18.8611 1.92225 18.8611 1.92228 18.8611C1.92231 18.861 1.92233 18.861 1.92236 18.861C1.92239 18.861 1.92241 18.8609 1.92244 18.8609C1.92247 18.8609 1.92249 18.8609 1.92252 18.8608C1.92255 18.8608 1.92257 18.8608 1.9226 18.8608C1.92263 18.8607 1.92265 18.8607 1.92268 18.8607C1.92271 18.8606 1.92273 18.8606 1.92276 18.8606C1.92279 18.8606 1.92282 18.8605 1.92284 18.8605C1.92287 18.8605 1.9229 18.8605 1.92293 18.8604C1.92295 18.8604 1.92298 18.8604 1.92301 18.8603C1.92303 18.8603 1.92306 18.8603 1.92309 18.8603C1.92312 18.8602 1.92314 18.8602 1.92317 18.8602C1.9232 18.8602 1.92323 18.8601 1.92326 18.8601C1.92328 18.8601 1.92331 18.86 1.92334 18.86C1.92337 18.86 1.92339 18.86 1.92342 18.8599C1.92345 18.8599 1.92348 18.8599 1.92351 18.8598C1.92353 18.8598 1.92356 18.8598 1.92359 18.8598C1.92362 18.8597 1.92365 18.8597 1.92368 18.8597C1.9237 18.8596 1.92373 18.8596 1.92376 18.8596C1.92379 18.8596 1.92382 18.8595 1.92385 18.8595C1.92387 18.8595 1.9239 18.8595 1.92393 18.8594C1.92396 18.8594 1.92399 18.8594 1.92402 18.8593C1.92405 18.8593 1.92407 18.8593 1.9241 18.8593C1.92413 18.8592 1.92416 18.8592 1.92419 18.8592C1.92422 18.8591 1.92425 18.8591 1.92428 18.8591C1.92431 18.859 1.92434 18.859 1.92436 18.859C1.92439 18.859 1.92442 18.8589 1.92445 18.8589C1.92448 18.8589 1.92451 18.8588 1.92454 18.8588C1.92457 18.8588 1.9246 18.8588 1.92463 18.8587C1.92466 18.8587 1.92469 18.8587 1.92472 18.8586C1.92475 18.8586 1.92477 18.8586 1.9248 18.8585C1.92483 18.8585 1.92486 18.8585 1.92489 18.8585C1.92492 18.8584 1.92495 18.8584 1.92498 18.8584C1.92501 18.8583 1.92504 18.8583 1.92507 18.8583C1.9251 18.8583 1.92513 18.8582 1.92516 18.8582C1.92519 18.8582 1.92522 18.8581 1.92525 18.8581C1.92528 18.8581 1.92531 18.858 1.92534 18.858C1.92537 18.858 1.9254 18.858 1.92543 18.8579C1.92546 18.8579 1.9255 18.8579 1.92553 18.8578C1.92556 18.8578 1.92559 18.8578 1.92562 18.8577C1.92565 18.8577 1.92568 18.8577 1.92571 18.8576C1.92574 18.8576 1.92577 18.8576 1.9258 18.8576C1.92583 18.8575 1.92586 18.8575 1.92589 18.8575C1.92592 18.8574 1.92596 18.8574 1.92599 18.8574C1.92602 18.8573 1.92605 18.8573 1.92608 18.8573C1.92611 18.8572 1.92614 18.8572 1.92617 18.8572C1.9262 18.8572 1.92624 18.8571 1.92627 18.8571C1.9263 18.8571 1.92633 18.857 1.92636 18.857C1.92639 18.857 1.92642 18.8569 1.92645 18.8569C1.92649 18.8569 1.92652 18.8568 1.92655 18.8568C1.92658 18.8568 1.92661 18.8567 1.92664 18.8567C1.92668 18.8567 1.92671 18.8566 1.92674 18.8566C1.92677 18.8566 1.9268 18.8566 1.92684 18.8565C1.92687 18.8565 1.9269 18.8565 1.92693 18.8564C1.92696 18.8564 1.927 18.8564 1.92703 18.8563C1.92706 18.8563 1.92709 18.8563 1.92712 18.8562C1.92716 18.8562 1.92719 18.8562 1.92722 18.8561C1.92725 18.8561 1.92729 18.8561 1.92732 18.856C1.92735 18.856 1.92738 18.856 1.92742 18.8559C1.92745 18.8559 1.92748 18.8559 1.92751 18.8558C1.92755 18.8558 1.92758 18.8558 1.92761 18.8557C1.92764 18.8557 1.92768 18.8557 1.92771 18.8556C1.92774 18.8556 1.92778 18.8556 1.92781 18.8555C1.92784 18.8555 1.92787 18.8555 1.92791 18.8554C1.92794 18.8554 1.92797 18.8554 1.92801 18.8553C1.92804 18.8553 1.92807 18.8553 1.92811 18.8552C1.92814 18.8552 1.92817 18.8552 1.92821 18.8551C1.92824 18.8551 1.92827 18.8551 1.92831 18.855C1.92834 18.855 1.92837 18.855 1.92841 18.8549C1.92844 18.8549 1.92847 18.8549 1.92851 18.8548C1.92854 18.8548 1.92858 18.8548 1.92861 18.8547C1.92864 18.8547 1.92868 18.8547 1.92871 18.8546C1.92875 18.8546 1.92878 18.8546 1.92881 18.8545C1.92885 18.8545 1.92888 18.8545 1.92892 18.8544C1.92895 18.8544 1.92898 18.8544 1.92902 18.8543C1.92905 18.8543 1.92909 18.8543 1.92912 18.8542C1.92915 18.8542 1.92919 18.8542 1.92922 18.8541C1.92926 18.8541 1.92929 18.8541 1.92933 18.854C1.92936 18.854 1.9294 18.854 1.92943 18.8539C1.92947 18.8539 1.9295 18.8539 1.92953 18.8538C1.92957 18.8538 1.9296 18.8538 1.92964 18.8537C1.92967 18.8537 1.92971 18.8536 1.92974 18.8536C1.92978 18.8536 1.92981 18.8535 1.92985 18.8535C1.92988 18.8535 1.92992 18.8534 1.92995 18.8534C1.92999 18.8534 1.93002 18.8533 1.93006 18.8533C1.9301 18.8533 1.93013 18.8532 1.93017 18.8532C1.9302 18.8532 1.93024 18.8531 1.93027 18.8531C1.93031 18.853 1.93034 18.853 1.93038 18.853C1.93041 18.8529 1.93045 18.8529 1.93049 18.8529C1.93052 18.8528 1.93056 18.8528 1.93059 18.8528C1.93063 18.8527 1.93066 18.8527 1.9307 18.8527C1.93074 18.8526 1.93077 18.8526 1.93081 18.8525C1.93084 18.8525 1.93088 18.8525 1.93092 18.8524C1.93095 18.8524 1.93099 18.8524 1.93102 18.8523C1.93106 18.8523 1.9311 18.8523 1.93113 18.8522C1.93117 18.8522 1.93121 18.8521 1.93124 18.8521C1.93128 18.8521 1.93132 18.852 1.93135 18.852C1.93139 18.852 1.93142 18.8519 1.93146 18.8519C1.9315 18.8519 1.93153 18.8518 1.93157 18.8518C1.93161 18.8517 1.93164 18.8517 1.93168 18.8517C1.93172 18.8516 1.93176 18.8516 1.93179 18.8516C1.93183 18.8515 1.93187 18.8515 1.9319 18.8515C1.93194 18.8514 1.93198 18.8514 1.93201 18.8513C1.93205 18.8513 1.93209 18.8513 1.93213 18.8512C1.93216 18.8512 1.9322 18.8512 1.93224 18.8511C1.93228 18.8511 1.93231 18.851 1.93235 18.851C1.93239 18.851 1.93242 18.8509 1.93246 18.8509C1.9325 18.8509 1.93254 18.8508 1.93258 18.8508C1.93261 18.8507 1.93265 18.8507 1.93269 18.8507C1.93273 18.8506 1.93276 18.8506 1.9328 18.8506C1.93284 18.8505 1.93288 18.8505 1.93292 18.8504C1.93295 18.8504 1.93299 18.8504 1.93303 18.8503C1.93307 18.8503 1.93311 18.8502 1.93314 18.8502C1.93318 18.8502 1.93322 18.8501 1.93326 18.8501C1.9333 18.8501 1.93334 18.85 1.93337 18.85C1.93341 18.8499 1.93345 18.8499 1.93349 18.8499C1.93353 18.8498 1.93357 18.8498 1.9336 18.8498C1.93364 18.8497 1.93368 18.8497 1.93372 18.8496C1.93376 18.8496 1.9338 18.8496 1.93384 18.8495C1.93388 18.8495 1.93391 18.8494 1.93395 18.8494C1.93399 18.8494 1.93403 18.8493 1.93407 18.8493C1.93411 18.8492 1.93415 18.8492 1.93419 18.8492C1.93423 18.8491 1.93427 18.8491 1.9343 18.849C1.93434 18.849 1.93438 18.849 1.93442 18.8489C1.93446 18.8489 1.9345 18.8489 1.93454 18.8488C1.93458 18.8488 1.93462 18.8487 1.93466 18.8487C1.9347 18.8487 1.93474 18.8486 1.93478 18.8486C1.93482 18.8485 1.93486 18.8485 1.9349 18.8485C1.93494 18.8484 1.93498 18.8484 1.93502 18.8483C1.93506 18.8483 1.9351 18.8483 1.93514 18.8482C1.93518 18.8482 1.93522 18.8481 1.93526 18.8481C1.9353 18.8481 1.93534 18.848 1.93538 18.848C1.93542 18.8479 1.93546 18.8479 1.9355 18.8479C1.93554 18.8478 1.93558 18.8478 1.93562 18.8477C1.93566 18.8477 1.9357 18.8477 1.93574 18.8476C1.93578 18.8476 1.93582 18.8475 1.93586 18.8475C1.9359 18.8475 1.93594 18.8474 1.93598 18.8474C1.93602 18.8473 1.93606 18.8473 1.93611 18.8472C1.93615 18.8472 1.93619 18.8472 1.93623 18.8471C1.93627 18.8471 1.93631 18.847 1.93635 18.847C1.93639 18.847 1.93643 18.8469 1.93647 18.8469C1.93651 18.8468 1.93656 18.8468 1.9366 18.8468C1.93664 18.8467 1.93668 18.8467 1.93672 18.8466C1.93676 18.8466 1.9368 18.8465 1.93684 18.8465C1.93689 18.8465 1.93693 18.8464 1.93697 18.8464C1.93701 18.8463 1.93705 18.8463 1.93709 18.8463C1.93714 18.8462 1.93718 18.8462 1.93722 18.8461C1.93726 18.8461 1.9373 18.8461 1.93734 18.846C1.93739 18.846 1.93743 18.8459 1.93747 18.8459C1.93751 18.8458 1.93755 18.8458 1.9376 18.8458C1.93764 18.8457 1.93768 18.8457 1.93772 18.8456C1.93776 18.8456 1.93781 18.8455 1.93785 18.8455C1.93789 18.8455 1.93793 18.8454 1.93798 18.8454C1.93802 18.8453 1.93806 18.8453 1.9381 18.8453C1.93815 18.8452 1.93819 18.8452 1.93823 18.8451C1.93827 18.8451 1.93832 18.845 1.93836 18.845C1.9384 18.845 1.93844 18.8449 1.93849 18.8449C1.93853 18.8448 1.93857 18.8448 1.93861 18.8447C1.93866 18.8447 1.9387 18.8447 1.93874 18.8446C1.93879 18.8446 1.93883 18.8445 1.93887 18.8445C1.93892 18.8444 1.93896 18.8444 1.939 18.8444C1.93905 18.8443 1.93909 18.8443 1.93913 18.8442C1.93917 18.8442 1.93922 18.8441 1.93926 18.8441C1.93931 18.844 1.93935 18.844 1.93939 18.844C1.93944 18.8439 1.93948 18.8439 1.93952 18.8438C1.93957 18.8438 1.93961 18.8437 1.93965 18.8437C1.9397 18.8437 1.93974 18.8436 1.93978 18.8436C1.93983 18.8435 1.93987 18.8435 1.93992 18.8434C1.93996 18.8434 1.94 18.8433 1.94005 18.8433C1.94009 18.8433 1.94014 18.8432 1.94018 18.8432C1.94022 18.8431 1.94027 18.8431 1.94031 18.843C1.94036 18.843 1.9404 18.843 1.94045 18.8429C1.94049 18.8429 1.94053 18.8428 1.94058 18.8428C1.94062 18.8427 1.94067 18.8427 1.94071 18.8426C1.94076 18.8426 1.9408 18.8426 1.94085 18.8425C1.94089 18.8425 1.94094 18.8424 1.94098 18.8424C1.94103 18.8423 1.94107 18.8423 1.94111 18.8422C1.94116 18.8422 1.9412 18.8421 1.94125 18.8421C1.94129 18.8421 1.94134 18.842 1.94138 18.842C1.94143 18.8419 1.94147 18.8419 1.94152 18.8418C1.94157 18.8418 1.94161 18.8417 1.94166 18.8417C1.9417 18.8417 1.94175 18.8416 1.94179 18.8416C1.94184 18.8415 1.94188 18.8415 1.94193 18.8414C1.94197 18.8414 1.94202 18.8413 1.94206 18.8413C1.94211 18.8412 1.94216 18.8412 1.9422 18.8412C1.94225 18.8411 1.94229 18.8411 1.94234 18.841C1.94238 18.841 1.94243 18.8409 1.94248 18.8409C1.94252 18.8408 1.94257 18.8408 1.94261 18.8407C1.94266 18.8407 1.94271 18.8406 1.94275 18.8406C1.9428 18.8406 1.94284 18.8405 1.94289 18.8405C1.94294 18.8404 1.94298 18.8404 1.94303 18.8403C1.94308 18.8403 1.94312 18.8402 1.94317 18.8402C1.94321 18.8401 1.94326 18.8401 1.94331 18.84C1.94335 18.84 1.9434 18.84 1.94345 18.8399C1.94349 18.8399 1.94354 18.8398 1.94359 18.8398C1.94363 18.8397 1.94368 18.8397 1.94373 18.8396C1.94377 18.8396 1.94382 18.8395 1.94387 18.8395C1.94392 18.8394 1.94396 18.8394 1.94401 18.8393C1.94406 18.8393 1.9441 18.8393 1.94415 18.8392C1.9442 18.8392 1.94425 18.8391 1.94429 18.8391C1.94434 18.839 1.94439 18.839 1.94443 18.8389C1.94448 18.8389 1.94453 18.8388 1.94458 18.8388C1.94462 18.8387 1.94467 18.8387 1.94472 18.8386C1.94477 18.8386 1.94481 18.8385 1.94486 18.8385C1.94491 18.8384 1.94496 18.8384 1.94501 18.8383C1.94505 18.8383 1.9451 18.8383 1.94515 18.8382C1.9452 18.8382 1.94524 18.8381 1.94529 18.8381C1.94534 18.838 1.94539 18.838 1.94544 18.8379C1.94548 18.8379 1.94553 18.8378 1.94558 18.8378C1.94563 18.8377 1.94568 18.8377 1.94573 18.8376C1.94577 18.8376 1.94582 18.8375 1.94587 18.8375C1.94592 18.8374 1.94597 18.8374 1.94602 18.8373C1.94606 18.8373 1.94611 18.8372 1.94616 18.8372C1.94621 18.8371 1.94626 18.8371 1.94631 18.837C1.94636 18.837 1.94641 18.8369 1.94645 18.8369C1.9465 18.8369 1.94655 18.8368 1.9466 18.8368C1.94665 18.8367 1.9467 18.8367 1.94675 18.8366C1.9468 18.8366 1.94685 18.8365 1.94689 18.8365C1.94694 18.8364 1.94699 18.8364 1.94704 18.8363C1.94709 18.8363 1.94714 18.8362 1.94719 18.8362C1.94724 18.8361 1.94729 18.8361 1.94734 18.836C1.94739 18.836 1.94744 18.8359 1.94749 18.8359C1.94754 18.8358 1.94759 18.8358 1.94764 18.8357C1.94769 18.8357 1.94773 18.8356 1.94778 18.8356C1.94783 18.8355 1.94788 18.8355 1.94793 18.8354C1.94798 18.8354 1.94803 18.8353 1.94808 18.8353C1.94813 18.8352 1.94818 18.8352 1.94823 18.8351C1.94828 18.8351 1.94833 18.835 1.94838 18.835C1.94843 18.8349 1.94848 18.8349 1.94853 18.8348C1.94859 18.8348 1.94864 18.8347 1.94869 18.8347C1.94874 18.8346 1.94879 18.8346 1.94884 18.8345C1.94889 18.8345 1.94894 18.8344 1.94899 18.8344C1.94904 18.8343 1.94909 18.8343 1.94914 18.8342C1.94919 18.8342 1.94924 18.8341 1.94929 18.8341C1.94934 18.834 1.94939 18.834 1.94945 18.8339C1.9495 18.8339 1.94955 18.8338 1.9496 18.8338C1.94965 18.8337 1.9497 18.8337 1.94975 18.8336C1.9498 18.8336 1.94985 18.8335 1.9499 18.8334C1.94996 18.8334 1.95001 18.8333 1.95006 18.8333C1.95011 18.8332 1.95016 18.8332 1.95021 18.8331C1.95026 18.8331 1.95032 18.833 1.95037 18.833C1.95042 18.8329 1.95047 18.8329 1.95052 18.8328C1.95057 18.8328 1.95063 18.8327 1.95068 18.8327C1.95073 18.8326 1.95078 18.8326 1.95083 18.8325C1.95088 18.8325 1.95094 18.8324 1.95099 18.8324C1.95104 18.8323 1.95109 18.8323 1.95114 18.8322C1.9512 18.8322 1.95125 18.8321 1.9513 18.8321C1.95135 18.832 1.9514 18.8319 1.95146 18.8319C1.95151 18.8318 1.95156 18.8318 1.95161 18.8317C1.95167 18.8317 1.95172 18.8316 1.95177 18.8316C1.95182 18.8315 1.95188 18.8315 1.95193 18.8314C1.95198 18.8314 1.95203 18.8313 1.95209 18.8313C1.95214 18.8312 1.95219 18.8312 1.95224 18.8311C1.9523 18.8311 1.95235 18.831 1.9524 18.831C1.95246 18.8309 1.95251 18.8308 1.95256 18.8308C1.95262 18.8307 1.95267 18.8307 1.95272 18.8306C1.95277 18.8306 1.95283 18.8305 1.95288 18.8305C1.95293 18.8304 1.95299 18.8304 1.95304 18.8303C1.95309 18.8303 1.95315 18.8302 1.9532 18.8302L1.24609 18.123L0.538987 17.4159C0.538934 17.416 0.53888 17.416 0.538827 17.4161C0.538774 17.4162 0.53872 17.4162 0.538667 17.4163C0.538614 17.4163 0.538561 17.4164 0.538508 17.4164C0.538455 17.4165 0.538402 17.4165 0.538349 17.4166C0.538296 17.4166 0.538243 17.4167 0.53819 17.4167C0.538137 17.4168 0.538084 17.4168 0.538031 17.4169C0.537979 17.4169 0.537926 17.417 0.537873 17.4171C0.53782 17.4171 0.537768 17.4172 0.537715 17.4172C0.537663 17.4173 0.53761 17.4173 0.537558 17.4174C0.537505 17.4174 0.537453 17.4175 0.5374 17.4175C0.537348 17.4176 0.537296 17.4176 0.537244 17.4177C0.537191 17.4177 0.537139 17.4178 0.537087 17.4178C0.537035 17.4179 0.536983 17.4179 0.536931 17.418C0.536879 17.418 0.536827 17.4181 0.536775 17.4182C0.536723 17.4182 0.536671 17.4183 0.536619 17.4183C0.536567 17.4184 0.536515 17.4184 0.536464 17.4185C0.536412 17.4185 0.53636 17.4186 0.536308 17.4186C0.536257 17.4187 0.536205 17.4187 0.536154 17.4188C0.536102 17.4188 0.536051 17.4189 0.535999 17.4189C0.535948 17.419 0.535897 17.419 0.535845 17.4191C0.535794 17.4191 0.535743 17.4192 0.535691 17.4192C0.53564 17.4193 0.535589 17.4193 0.535538 17.4194C0.535487 17.4194 0.535436 17.4195 0.535385 17.4195C0.535334 17.4196 0.535283 17.4196 0.535232 17.4197C0.535181 17.4197 0.53513 17.4198 0.535079 17.4198C0.535029 17.4199 0.534978 17.4199 0.534927 17.42C0.534876 17.4201 0.534826 17.4201 0.534775 17.4202C0.534725 17.4202 0.534674 17.4203 0.534624 17.4203C0.534573 17.4204 0.534523 17.4204 0.534472 17.4205C0.534422 17.4205 0.534372 17.4206 0.534321 17.4206C0.534271 17.4207 0.534221 17.4207 0.534171 17.4208C0.53412 17.4208 0.53407 17.4209 0.53402 17.4209C0.53397 17.421 0.53392 17.421 0.53387 17.4211C0.53382 17.4211 0.53377 17.4212 0.53372 17.4212C0.533671 17.4213 0.533621 17.4213 0.533571 17.4214C0.533521 17.4214 0.533472 17.4215 0.533422 17.4215C0.533372 17.4216 0.533323 17.4216 0.533273 17.4217C0.533224 17.4217 0.533174 17.4218 0.533125 17.4218C0.533075 17.4219 0.533026 17.4219 0.532976 17.422C0.532927 17.422 0.532878 17.422 0.532829 17.4221C0.532779 17.4221 0.53273 17.4222 0.532681 17.4222C0.532632 17.4223 0.532583 17.4223 0.532534 17.4224C0.532485 17.4224 0.532436 17.4225 0.532387 17.4225C0.532338 17.4226 0.532289 17.4226 0.53224 17.4227C0.532192 17.4227 0.532143 17.4228 0.532094 17.4228C0.532045 17.4229 0.531997 17.4229 0.531948 17.423C0.531899 17.423 0.531851 17.4231 0.531802 17.4231C0.531754 17.4232 0.531705 17.4232 0.531657 17.4233C0.531609 17.4233 0.53156 17.4234 0.531512 17.4234C0.531464 17.4235 0.531415 17.4235 0.531367 17.4236C0.531319 17.4236 0.531271 17.4237 0.531223 17.4237C0.531175 17.4238 0.531127 17.4238 0.531079 17.4238C0.531031 17.4239 0.530983 17.4239 0.530935 17.424C0.530887 17.424 0.530839 17.4241 0.530791 17.4241C0.530744 17.4242 0.530696 17.4242 0.530648 17.4243C0.530601 17.4243 0.530553 17.4244 0.530505 17.4244C0.530458 17.4245 0.53041 17.4245 0.530363 17.4246C0.530315 17.4246 0.530268 17.4247 0.530221 17.4247C0.530173 17.4248 0.530126 17.4248 0.530079 17.4248C0.530032 17.4249 0.529984 17.4249 0.529937 17.425C0.52989 17.425 0.529843 17.4251 0.529796 17.4251C0.529749 17.4252 0.529702 17.4252 0.529655 17.4253C0.529608 17.4253 0.529561 17.4254 0.529514 17.4254C0.529467 17.4255 0.529421 17.4255 0.529374 17.4256C0.529327 17.4256 0.529281 17.4256 0.529234 17.4257C0.529187 17.4257 0.529141 17.4258 0.529094 17.4258C0.529048 17.4259 0.529001 17.4259 0.528955 17.426C0.528908 17.426 0.528862 17.4261 0.528816 17.4261C0.528769 17.4262 0.528723 17.4262 0.528677 17.4263C0.528631 17.4263 0.528585 17.4263 0.528538 17.4264C0.528492 17.4264 0.528446 17.4265 0.5284 17.4265C0.528354 17.4266 0.528308 17.4266 0.528262 17.4267C0.528217 17.4267 0.528171 17.4268 0.528125 17.4268C0.528079 17.4268 0.528033 17.4269 0.527988 17.4269C0.527942 17.427 0.527896 17.427 0.527851 17.4271C0.527805 17.4271 0.52776 17.4272 0.527714 17.4272C0.527669 17.4273 0.527623 17.4273 0.527578 17.4273C0.527533 17.4274 0.527487 17.4274 0.527442 17.4275C0.527397 17.4275 0.527351 17.4276 0.527306 17.4276C0.527261 17.4277 0.527216 17.4277 0.527171 17.4278C0.527126 17.4278 0.527081 17.4278 0.527036 17.4279C0.526991 17.4279 0.526946 17.428 0.526901 17.428C0.526856 17.4281 0.526812 17.4281 0.526767 17.4282C0.526722 17.4282 0.526677 17.4282 0.526633 17.4283C0.526588 17.4283 0.526543 17.4284 0.526499 17.4284C0.526454 17.4285 0.52641 17.4285 0.526365 17.4286C0.526321 17.4286 0.526277 17.4286 0.526232 17.4287C0.526188 17.4287 0.526144 17.4288 0.5261 17.4288C0.526055 17.4289 0.526011 17.4289 0.525967 17.429C0.525923 17.429 0.525879 17.429 0.525835 17.4291C0.525791 17.4291 0.525747 17.4292 0.525703 17.4292C0.525659 17.4293 0.525615 17.4293 0.525571 17.4294C0.525527 17.4294 0.525484 17.4294 0.52544 17.4295C0.525396 17.4295 0.525353 17.4296 0.525309 17.4296C0.525265 17.4297 0.525222 17.4297 0.525178 17.4297C0.525135 17.4298 0.525091 17.4298 0.525048 17.4299C0.525005 17.4299 0.524961 17.43 0.524918 17.43C0.524875 17.4301 0.524832 17.4301 0.524788 17.4301C0.524745 17.4302 0.524702 17.4302 0.524659 17.4303C0.524616 17.4303 0.524573 17.4304 0.52453 17.4304C0.524487 17.4304 0.524444 17.4305 0.524401 17.4305C0.524358 17.4306 0.524315 17.4306 0.524273 17.4307C0.52423 17.4307 0.524187 17.4307 0.524145 17.4308C0.524102 17.4308 0.524059 17.4309 0.524017 17.4309C0.523974 17.431 0.523932 17.431 0.523889 17.431C0.523847 17.4311 0.523804 17.4311 0.523762 17.4312C0.52372 17.4312 0.523677 17.4312 0.523635 17.4313C0.523593 17.4313 0.523551 17.4314 0.523508 17.4314C0.523466 17.4315 0.523424 17.4315 0.523382 17.4315C0.52334 17.4316 0.523298 17.4316 0.523256 17.4317C0.523214 17.4317 0.523172 17.4318 0.523131 17.4318C0.523089 17.4318 0.523047 17.4319 0.523005 17.4319C0.522964 17.432 0.522922 17.432 0.52288 17.432C0.522839 17.4321 0.522797 17.4321 0.522756 17.4322C0.522714 17.4322 0.522673 17.4323 0.522631 17.4323C0.52259 17.4323 0.522548 17.4324 0.522507 17.4324C0.522466 17.4325 0.522425 17.4325 0.522383 17.4325C0.522342 17.4326 0.522301 17.4326 0.52226 17.4327C0.522219 17.4327 0.522178 17.4327 0.522137 17.4328C0.522096 17.4328 0.522055 17.4329 0.522014 17.4329C0.521973 17.433 0.521932 17.433 0.521891 17.433C0.521851 17.4331 0.52181 17.4331 0.521769 17.4332C0.521729 17.4332 0.521688 17.4332 0.521647 17.4333C0.521607 17.4333 0.521566 17.4334 0.521526 17.4334C0.521485 17.4334 0.521445 17.4335 0.521405 17.4335C0.521364 17.4336 0.521324 17.4336 0.521284 17.4336C0.521243 17.4337 0.521203 17.4337 0.521163 17.4338C0.521123 17.4338 0.521083 17.4338 0.521043 17.4339C0.521003 17.4339 0.520963 17.434 0.520923 17.434C0.520883 17.434 0.520843 17.4341 0.520803 17.4341C0.520763 17.4342 0.520723 17.4342 0.520684 17.4342C0.520644 17.4343 0.520604 17.4343 0.520564 17.4344C0.520525 17.4344 0.520485 17.4344 0.520446 17.4345C0.520406 17.4345 0.520367 17.4346 0.520327 17.4346C0.520288 17.4346 0.520248 17.4347 0.520209 17.4347C0.52017 17.4348 0.520131 17.4348 0.520091 17.4348C0.520052 17.4349 0.520013 17.4349 0.519974 17.435C0.519935 17.435 0.519896 17.435 0.519857 17.4351C0.519818 17.4351 0.519779 17.4351 0.51974 17.4352C0.519701 17.4352 0.519662 17.4353 0.519623 17.4353C0.519584 17.4353 0.519546 17.4354 0.519507 17.4354C0.519468 17.4355 0.51943 17.4355 0.519391 17.4355C0.519352 17.4356 0.519314 17.4356 0.519275 17.4357C0.519237 17.4357 0.519198 17.4357 0.51916 17.4358C0.519122 17.4358 0.519083 17.4358 0.519045 17.4359C0.519007 17.4359 0.518969 17.436 0.51893 17.436C0.518892 17.436 0.518854 17.4361 0.518816 17.4361C0.518778 17.4361 0.51874 17.4362 0.518702 17.4362C0.518664 17.4363 0.518626 17.4363 0.518588 17.4363C0.51855 17.4364 0.518513 17.4364 0.518475 17.4365C0.518437 17.4365 0.518399 17.4365 0.518362 17.4366C0.518324 17.4366 0.518286 17.4366 0.518249 17.4367C0.518211 17.4367 0.518174 17.4368 0.518136 17.4368C0.518099 17.4368 0.518062 17.4369 0.518024 17.4369C0.517987 17.4369 0.51795 17.437 0.517912 17.437C0.517875 17.4371 0.517838 17.4371 0.517801 17.4371C0.517764 17.4372 0.517727 17.4372 0.517689 17.4372C0.517652 17.4373 0.517615 17.4373 0.517579 17.4373C0.517542 17.4374 0.517505 17.4374 0.517468 17.4375C0.517431 17.4375 0.517394 17.4375 0.517358 17.4376C0.517321 17.4376 0.517284 17.4376 0.517248 17.4377C0.517211 17.4377 0.517174 17.4378 0.517138 17.4378C0.517101 17.4378 0.517065 17.4379 0.517029 17.4379C0.516992 17.4379 0.516956 17.438 0.51692 17.438C0.516883 17.438 0.516847 17.4381 0.516811 17.4381C0.516775 17.4382 0.516738 17.4382 0.516702 17.4382C0.516666 17.4383 0.51663 17.4383 0.516594 17.4383C0.516558 17.4384 0.516522 17.4384 0.516486 17.4384C0.516451 17.4385 0.516415 17.4385 0.516379 17.4385C0.516343 17.4386 0.516307 17.4386 0.516272 17.4387C0.516236 17.4387 0.5162 17.4387 0.516165 17.4388C0.516129 17.4388 0.516094 17.4388 0.516058 17.4389C0.516023 17.4389 0.515987 17.4389 0.515952 17.439C0.515917 17.439 0.515881 17.439 0.515846 17.4391C0.515811 17.4391 0.515776 17.4392 0.515741 17.4392C0.515705 17.4392 0.51567 17.4393 0.515635 17.4393C0.5156 17.4393 0.515565 17.4394 0.51553 17.4394C0.515495 17.4394 0.51546 17.4395 0.515426 17.4395C0.515391 17.4395 0.515356 17.4396 0.515321 17.4396C0.515287 17.4396 0.515252 17.4397 0.515217 17.4397C0.515183 17.4397 0.515148 17.4398 0.515114 17.4398C0.515079 17.4398 0.515045 17.4399 0.51501 17.4399C0.514976 17.44 0.514941 17.44 0.514907 17.44C0.514873 17.4401 0.514838 17.4401 0.514804 17.4401C0.51477 17.4402 0.514736 17.4402 0.514702 17.4402C0.514668 17.4403 0.514634 17.4403 0.5146 17.4403C0.514566 17.4404 0.514532 17.4404 0.514498 17.4404C0.514464 17.4405 0.51443 17.4405 0.514396 17.4405C0.514362 17.4406 0.514329 17.4406 0.514295 17.4406C0.514261 17.4407 0.514228 17.4407 0.514194 17.4407C0.51416 17.4408 0.514127 17.4408 0.514093 17.4408C0.51406 17.4409 0.514026 17.4409 0.513993 17.4409C0.51396 17.441 0.513926 17.441 0.513893 17.441C0.51386 17.4411 0.513827 17.4411 0.513793 17.4411C0.51376 17.4412 0.513727 17.4412 0.513694 17.4412C0.513661 17.4413 0.513628 17.4413 0.513595 17.4413C0.513562 17.4414 0.513529 17.4414 0.513496 17.4414C0.513463 17.4415 0.513431 17.4415 0.513398 17.4415C0.513365 17.4416 0.513332 17.4416 0.5133 17.4416C0.513267 17.4417 0.513235 17.4417 0.513202 17.4417C0.513169 17.4418 0.513137 17.4418 0.513105 17.4418C0.513072 17.4419 0.51304 17.4419 0.513007 17.4419C0.512975 17.442 0.512943 17.442 0.512911 17.442C0.512878 17.442 0.512846 17.4421 0.512814 17.4421C0.512782 17.4421 0.51275 17.4422 0.512718 17.4422C0.512686 17.4422 0.512654 17.4423 0.512622 17.4423C0.51259 17.4423 0.512558 17.4424 0.512526 17.4424C0.512494 17.4424 0.512463 17.4425 0.512431 17.4425C0.512399 17.4425 0.512368 17.4426 0.512336 17.4426C0.512304 17.4426 0.512273 17.4427 0.512241 17.4427C0.51221 17.4427 0.512178 17.4427 0.512147 17.4428C0.512116 17.4428 0.512084 17.4428 0.512053 17.4429C0.512022 17.4429 0.51199 17.4429 0.511959 17.443C0.511928 17.443 0.511897 17.443 0.511866 17.4431C0.511835 17.4431 0.511804 17.4431 0.511773 17.4432C0.511742 17.4432 0.511711 17.4432 0.51168 17.4432C0.511649 17.4433 0.511618 17.4433 0.511587 17.4433C0.511557 17.4434 0.511526 17.4434 0.511495 17.4434C0.511465 17.4435 0.511434 17.4435 0.511403 17.4435C0.511373 17.4436 0.511342 17.4436 0.511312 17.4436C0.511281 17.4436 0.511251 17.4437 0.511221 17.4437C0.51119 17.4437 0.51116 17.4438 0.51113 17.4438C0.5111 17.4438 0.511069 17.4439 0.511039 17.4439C0.511009 17.4439 0.510979 17.4439 0.510949 17.444C0.510919 17.444 0.510889 17.444 0.510859 17.4441C0.510829 17.4441 0.510799 17.4441 0.510769 17.4442C0.51074 17.4442 0.51071 17.4442 0.51068 17.4442C0.51065 17.4443 0.510621 17.4443 0.510591 17.4443C0.510561 17.4444 0.510532 17.4444 0.510502 17.4444C0.510473 17.4445 0.510443 17.4445 0.510414 17.4445C0.510384 17.4445 0.510355 17.4446 0.510326 17.4446C0.510296 17.4446 0.510267 17.4447 0.510238 17.4447C0.510209 17.4447 0.51018 17.4447 0.510151 17.4448C0.510121 17.4448 0.510092 17.4448 0.510063 17.4449C0.510034 17.4449 0.510005 17.4449 0.509977 17.445C0.509948 17.445 0.509919 17.445 0.50989 17.445C0.509861 17.4451 0.509832 17.4451 0.509804 17.4451C0.509775 17.4452 0.509746 17.4452 0.509718 17.4452C0.509689 17.4452 0.509661 17.4453 0.509632 17.4453C0.509604 17.4453 0.509575 17.4454 0.509547 17.4454C0.509519 17.4454 0.50949 17.4454 0.509462 17.4455C0.509434 17.4455 0.509406 17.4455 0.509377 17.4455C0.509349 17.4456 0.509321 17.4456 0.509293 17.4456C0.509265 17.4457 0.509237 17.4457 0.509209 17.4457C0.509181 17.4457 0.509153 17.4458 0.509125 17.4458C0.509098 17.4458 0.50907 17.4459 0.509042 17.4459C0.509014 17.4459 0.508987 17.4459 0.508959 17.446C0.508931 17.446 0.508904 17.446 0.508876 17.4461C0.508849 17.4461 0.508821 17.4461 0.508794 17.4461C0.508766 17.4462 0.508739 17.4462 0.508712 17.4462C0.508684 17.4462 0.508657 17.4463 0.50863 17.4463C0.508602 17.4463 0.508575 17.4464 0.508548 17.4464C0.508521 17.4464 0.508494 17.4464 0.508467 17.4465C0.50844 17.4465 0.508413 17.4465 0.508386 17.4465C0.508359 17.4466 0.508332 17.4466 0.508306 17.4466C0.508279 17.4466 0.508252 17.4467 0.508225 17.4467C0.508199 17.4467 0.508172 17.4468 0.508145 17.4468C0.508119 17.4468 0.508092 17.4468 0.508066 17.4469C0.508039 17.4469 0.508013 17.4469 0.507986 17.4469C0.50796 17.447 0.507934 17.447 0.507907 17.447C0.507881 17.447 0.507855 17.4471 0.507829 17.4471C0.507802 17.4471 0.507776 17.4472 0.50775 17.4472C0.507724 17.4472 0.507698 17.4472 0.507672 17.4473C0.507646 17.4473 0.50762 17.4473 0.507594 17.4473C0.507569 17.4474 0.507543 17.4474 0.507517 17.4474C0.507491 17.4474 0.507465 17.4475 0.50744 17.4475C0.507414 17.4475 0.507389 17.4475 0.507363 17.4476C0.507337 17.4476 0.507312 17.4476 0.507286 17.4476C0.507261 17.4477 0.507236 17.4477 0.50721 17.4477C0.507185 17.4477 0.50716 17.4478 0.507134 17.4478C0.507109 17.4478 0.507084 17.4478 0.507059 17.4479C0.507034 17.4479 0.507009 17.4479 0.506984 17.4479C0.506959 17.448 0.506934 17.448 0.506909 17.448C0.506884 17.448 0.506859 17.4481 0.506834 17.4481C0.506809 17.4481 0.506784 17.4481 0.50676 17.4482C0.506735 17.4482 0.50671 17.4482 0.506686 17.4482C0.506661 17.4483 0.506636 17.4483 0.506612 17.4483C0.506587 17.4483 0.506563 17.4484 0.506539 17.4484C0.506514 17.4484 0.50649 17.4484 0.506466 17.4485C0.506441 17.4485 0.506417 17.4485 0.506393 17.4485C0.506369 17.4486 0.506344 17.4486 0.50632 17.4486C0.506296 17.4486 0.506272 17.4487 0.506248 17.4487C0.506224 17.4487 0.5062 17.4487 0.506176 17.4488C0.506152 17.4488 0.506129 17.4488 0.506105 17.4488C0.506081 17.4488 0.506057 17.4489 0.506034 17.4489C0.50601 17.4489 0.505986 17.4489 0.505963 17.449C0.505939 17.449 0.505916 17.449 0.505892 17.449C0.505869 17.4491 0.505845 17.4491 0.505822 17.4491C0.505799 17.4491 0.505775 17.4492 0.505752 17.4492C0.505729 17.4492 0.505706 17.4492 0.505682 17.4492C0.505659 17.4493 0.505636 17.4493 0.505613 17.4493C0.50559 17.4493 0.505567 17.4494 0.505544 17.4494C0.505521 17.4494 0.505498 17.4494 0.505475 17.4495C0.505453 17.4495 0.50543 17.4495 0.505407 17.4495C0.505384 17.4495 0.505362 17.4496 0.505339 17.4496C0.505316 17.4496 0.505294 17.4496 0.505271 17.4497C0.505249 17.4497 0.505226 17.4497 0.505204 17.4497C0.505181 17.4497 0.505159 17.4498 0.505137 17.4498C0.505114 17.4498 0.505092 17.4498 0.50507 17.4499C0.505048 17.4499 0.505026 17.4499 0.505003 17.4499C0.504981 17.4499 0.504959 17.45 0.504937 17.45C0.504915 17.45 0.504893 17.45 0.504871 17.4501C0.504849 17.4501 0.504828 17.4501 0.504806 17.4501C0.504784 17.4501 0.504762 17.4502 0.504741 17.4502C0.504719 17.4502 0.504697 17.4502 0.504676 17.4503C0.504654 17.4503 0.504632 17.4503 0.504611 17.4503C0.504589 17.4503 0.504568 17.4504 0.504547 17.4504C0.504525 17.4504 0.504504 17.4504 0.504483 17.4504C0.504461 17.4505 0.50444 17.4505 0.504419 17.4505C0.504398 17.4505 0.504377 17.4506 0.504356 17.4506C0.504335 17.4506 0.504314 17.4506 0.504293 17.4506C0.504272 17.4507 0.504251 17.4507 0.50423 17.4507C0.504209 17.4507 0.504188 17.4507 0.504167 17.4508C0.504147 17.4508 0.504126 17.4508 0.504105 17.4508C0.504085 17.4508 0.504064 17.4509 0.504043 17.4509C0.504023 17.4509 0.504002 17.4509 0.503982 17.4509C0.503962 17.451 0.503941 17.451 0.503921 17.451C0.5039 17.451 0.50388 17.451 0.50386 17.4511C0.50384 17.4511 0.50382 17.4511 0.503799 17.4511C0.503779 17.4511 0.503759 17.4512 0.503739 17.4512C0.503719 17.4512 0.503699 17.4512 0.503679 17.4512C0.503659 17.4513 0.503639 17.4513 0.50362 17.4513C0.5036 17.4513 0.50358 17.4513 0.50356 17.4514C0.503541 17.4514 0.503521 17.4514 0.503501 17.4514C0.503482 17.4514 0.503462 17.4515 0.503443 17.4515C0.503423 17.4515 0.503404 17.4515 0.503384 17.4515C0.503365 17.4516 0.503346 17.4516 0.503326 17.4516C0.503307 17.4516 0.503288 17.4516 0.503269 17.4517C0.503249 17.4517 0.50323 17.4517 0.503211 17.4517C0.503192 17.4517 0.503173 17.4518 0.503154 17.4518C0.503135 17.4518 0.503116 17.4518 0.503097 17.4518C0.503078 17.4518 0.50306 17.4519 0.503041 17.4519C0.503022 17.4519 0.503003 17.4519 0.502985 17.4519C0.502966 17.452 0.502947 17.452 0.502929 17.452C0.50291 17.452 0.502892 17.452 0.502873 17.4521C0.502855 17.4521 0.502836 17.4521 0.502818 17.4521C0.5028 17.4521 0.502781 17.4521 0.502763 17.4522C0.502745 17.4522 0.502727 17.4522 0.502708 17.4522C0.50269 17.4522 0.502672 17.4523 0.502654 17.4523C0.502636 17.4523 0.502618 17.4523 0.5026 17.4523C0.502582 17.4523 0.502564 17.4524 0.502546 17.4524C0.502529 17.4524 0.502511 17.4524 0.502493 17.4524C0.502475 17.4525 0.502458 17.4525 0.50244 17.4525C0.502422 17.4525 0.502405 17.4525 0.502387 17.4525C0.50237 17.4526 0.502352 17.4526 0.502335 17.4526C0.502317 17.4526 0.5023 17.4526 0.502283 17.4526C0.502266 17.4527 0.502248 17.4527 0.502231 17.4527C0.502214 17.4527 0.502197 17.4527 0.50218 17.4527C0.502162 17.4528 0.502145 17.4528 0.502128 17.4528C0.502111 17.4528 0.502094 17.4528 0.502078 17.4529C0.502061 17.4529 0.502044 17.4529 0.502027 17.4529C0.50201 17.4529 0.501993 17.4529 0.501977 17.4529C0.50196 17.453 0.501943 17.453 0.501927 17.453C0.50191 17.453 0.501894 17.453 0.501877 17.4531C0.501861 17.4531 0.501844 17.4531 0.501828 17.4531C0.501812 17.4531 0.501795 17.4531 0.501779 17.4531C0.501763 17.4532 0.501747 17.4532 0.50173 17.4532C0.501714 17.4532 0.501698 17.4532 0.501682 17.4532C0.501666 17.4533 0.50165 17.4533 0.501634 17.4533C0.501618 17.4533 0.501602 17.4533 0.501586 17.4533C0.50157 17.4534 0.501555 17.4534 0.501539 17.4534C0.501523 17.4534 0.501507 17.4534 0.501492 17.4534C0.501476 17.4535 0.50146 17.4535 0.501445 17.4535C0.501429 17.4535 0.501414 17.4535 0.501399 17.4535C0.501383 17.4535 0.501368 17.4536 0.501352 17.4536C0.501337 17.4536 0.501322 17.4536 0.501307 17.4536C0.501291 17.4536 0.501276 17.4537 0.501261 17.4537C0.501246 17.4537 0.501231 17.4537 0.501216 17.4537C0.501201 17.4537 0.501186 17.4537 0.501171 17.4538C0.501156 17.4538 0.501141 17.4538 0.501126 17.4538C0.501111 17.4538 0.501097 17.4538 0.501082 17.4538C0.501067 17.4539 0.501053 17.4539 0.501038 17.4539C0.501023 17.4539 0.501009 17.4539 0.500994 17.4539C0.50098 17.4539 0.500965 17.454 0.500951 17.454C0.500937 17.454 0.500922 17.454 0.500908 17.454C0.500894 17.454 0.500879 17.454 0.500865 17.4541C0.500851 17.4541 0.500837 17.4541 0.500823 17.4541C0.500809 17.4541 0.500795 17.4541 0.500781 17.4541C0.500767 17.4542 0.500753 17.4542 0.500739 17.4542C0.500725 17.4542 0.500711 17.4542 0.500698 17.4542C0.500684 17.4542 0.50067 17.4543 0.500656 17.4543C0.500643 17.4543 0.500629 17.4543 0.500616 17.4543C0.500602 17.4543 0.500588 17.4543 0.500575 17.4544C0.500562 17.4544 0.500548 17.4544 0.500535 17.4544C0.500521 17.4544 0.500508 17.4544 0.500495 17.4544C0.500482 17.4544 0.500468 17.4545 0.500455 17.4545C0.500442 17.4545 0.500429 17.4545 0.500416 17.4545C0.500403 17.4545 0.50039 17.4545 0.500377 17.4545C0.500364 17.4546 0.500351 17.4546 0.500338 17.4546C0.500326 17.4546 0.500313 17.4546 0.5003 17.4546C0.500287 17.4546 0.500275 17.4547 0.500262 17.4547C0.500249 17.4547 0.500237 17.4547 0.500224 17.4547C0.500212 17.4547 0.500199 17.4547 0.500187 17.4547C0.500175 17.4548 0.500162 17.4548 0.50015 17.4548C0.500138 17.4548 0.500125 17.4548 0.500113 17.4548C0.500101 17.4548 0.500089 17.4548 0.500077 17.4549C0.500065 17.4549 0.500053 17.4549 0.500041 17.4549C0.500029 17.4549 0.500017 17.4549 0.500005 17.4549C0.499993 17.4549 0.499981 17.4549 0.499969 17.455C0.499957 17.455 0.499946 17.455 0.499934 17.455C0.499922 17.455 0.499911 17.455 0.499899 17.455C0.499888 17.455 0.499876 17.4551 0.499865 17.4551C0.499853 17.4551 0.499842 17.4551 0.49983 17.4551C0.499819 17.4551 0.499808 17.4551 0.499796 17.4551C0.499785 17.4551 0.499774 17.4552 0.499763 17.4552C0.499752 17.4552 0.49974 17.4552 0.499729 17.4552C0.499718 17.4552 0.499707 17.4552 0.499696 17.4552C0.499685 17.4552 0.499674 17.4553 0.499664 17.4553C0.499653 17.4553 0.499642 17.4553 0.499631 17.4553C0.49962 17.4553 0.49961 17.4553 0.499599 17.4553C0.499589 17.4553 0.499578 17.4553 0.499567 17.4554C0.499557 17.4554 0.499546 17.4554 0.499536 17.4554C0.499526 17.4554 0.499515 17.4554 0.499505 17.4554C0.499494 17.4554 0.499484 17.4554 0.499474 17.4555C0.499464 17.4555 0.499454 17.4555 0.499443 17.4555C0.499433 17.4555 0.499423 17.4555 0.499413 17.4555C0.499403 17.4555 0.499393 17.4555 0.499383 17.4555C0.499373 17.4556 0.499364 17.4556 0.499354 17.4556C0.499344 17.4556 0.499334 17.4556 0.499325 17.4556C0.499315 17.4556 0.499305 17.4556 0.499296 17.4556C0.499286 17.4556 0.499277 17.4557 0.499267 17.4557C0.499258 17.4557 0.499248 17.4557 0.499239 17.4557C0.499229 17.4557 0.49922 17.4557 0.499211 17.4557C0.499201 17.4557 0.499192 17.4557 0.499183 17.4557C0.499174 17.4558 0.499165 17.4558 0.499156 17.4558C0.499147 17.4558 0.499138 17.4558 0.499129 17.4558C0.49912 17.4558 0.499111 17.4558 0.499102 17.4558C0.499093 17.4558 0.499084 17.4558 0.499075 17.4559C0.499067 17.4559 0.499058 17.4559 0.499049 17.4559C0.499041 17.4559 0.499032 17.4559 0.499023 17.4559C0.499015 17.4559 0.499006 17.4559 0.498998 17.4559C0.498989 17.4559 0.498981 17.4559 0.498973 17.456C0.498964 17.456 0.498956 17.456 0.498948 17.456C0.49894 17.456 0.498931 17.456 0.498923 17.456C0.498915 17.456 0.498907 17.456 0.498899 17.456C0.498891 17.456 0.498883 17.456 0.498875 17.4561C0.498867 17.4561 0.498859 17.4561 0.498851 17.4561C0.498844 17.4561 0.498836 17.4561 0.498828 17.4561C0.49882 17.4561 0.498813 17.4561 0.498805 17.4561C0.498798 17.4561 0.49879 17.4561 0.498782 17.4561C0.498775 17.4562 0.498767 17.4562 0.49876 17.4562C0.498753 17.4562 0.498745 17.4562 0.498738 17.4562C0.498731 17.4562 0.498723 17.4562 0.498716 17.4562C0.498709 17.4562 0.498702 17.4562 0.498695 17.4562C0.498688 17.4562 0.498681 17.4562 0.498674 17.4563C0.498667 17.4563 0.49866 17.4563 0.498653 17.4563C0.498646 17.4563 0.498639 17.4563 0.498632 17.4563C0.498626 17.4563 0.498619 17.4563 0.498612 17.4563C0.498606 17.4563 0.498599 17.4563 0.498592 17.4563C0.498586 17.4563 0.498579 17.4563 0.498573 17.4564C0.498566 17.4564 0.49856 17.4564 0.498554 17.4564C0.498547 17.4564 0.498541 17.4564 0.498535 17.4564C0.498528 17.4564 0.498522 17.4564 0.498516 17.4564C0.49851 17.4564 0.498504 17.4564 0.498498 17.4564C0.498492 17.4564 0.498486 17.4564 0.49848 17.4564C0.498474 17.4565 0.498468 17.4565 0.498462 17.4565C0.498456 17.4565 0.49845 17.4565 0.498445 17.4565C0.498439 17.4565 0.498433 17.4565 0.498428 17.4565C0.498422 17.4565 0.498416 17.4565 0.498411 17.4565C0.498405 17.4565 0.4984 17.4565 0.498394 17.4565C0.498389 17.4565 0.498384 17.4565 0.498378 17.4565C0.498373 17.4566 0.498368 17.4566 0.498362 17.4566C0.498357 17.4566 0.498352 17.4566 0.498347 17.4566C0.498342 17.4566 0.498337 17.4566 0.498332 17.4566C0.498327 17.4566 0.498322 17.4566 0.498317 17.4566C0.498312 17.4566 0.498307 17.4566 0.498302 17.4566C0.498298 17.4566 0.498293 17.4566 0.498288 17.4566C0.498284 17.4566 0.498279 17.4566 0.498274 17.4567C0.49827 17.4567 0.498265 17.4567 0.498261 17.4567C0.498256 17.4567 0.498252 17.4567 0.498247 17.4567C0.498243 17.4567 0.498239 17.4567 0.498234 17.4567C0.49823 17.4567 0.498226 17.4567 0.498222 17.4567C0.498218 17.4567 0.498213 17.4567 0.498209 17.4567C0.498205 17.4567 0.498201 17.4567 0.498197 17.4567C0.498193 17.4567 0.498189 17.4567 0.498186 17.4567C0.498182 17.4567 0.498178 17.4567 0.498174 17.4568C0.49817 17.4568 0.498167 17.4568 0.498163 17.4568C0.498159 17.4568 0.498156 17.4568 0.498152 17.4568C0.498149 17.4568 0.498145 17.4568 0.498142 17.4568C0.498138 17.4568 0.498135 17.4568 0.498132 17.4568C0.498128 17.4568 0.498125 17.4568 0.498122 17.4568C0.498118 17.4568 0.498115 17.4568 0.498112 17.4568C0.498109 17.4568 0.498106 17.4568 0.498103 17.4568C0.4981 17.4568 0.498097 17.4568 0.498094 17.4568C0.498091 17.4568 0.498088 17.4568 0.498085 17.4568C0.498083 17.4568 0.49808 17.4568 0.498077 17.4569C0.498074 17.4569 0.498072 17.4569 0.498069 17.4569C0.498067 17.4569 0.498064 17.4569 0.498061 17.4569C0.498059 17.4569 0.498057 17.4569 0.498054 17.4569C0.498052 17.4569 0.498049 17.4569 0.498047 17.4569C0.498045 17.4569 0.498043 17.4569 0.49804 17.4569C0.498038 17.4569 0.498036 17.4569 0.498034 17.4569C0.498032 17.4569 0.49803 17.4569 0.498028 17.4569C0.498026 17.4569 0.498024 17.4569 0.498022 17.4569C0.49802 17.4569 0.498018 17.4569 0.498017 17.4569C0.498015 17.4569 0.498013 17.4569 0.498011 17.4569C0.49801 17.4569 0.498008 17.4569 0.498007 17.4569C0.498005 17.4569 0.498003 17.4569 0.498002 17.4569C0.498001 17.4569 0.497999 17.4569 0.497998 17.4569C0.497996 17.4569 0.497995 17.4569 0.497994 17.4569C0.497993 17.4569 0.497991 17.4569 0.49799 17.4569C0.497989 17.4569 0.497988 17.4569 0.497987 17.4569C0.497986 17.4569 0.497985 17.4569 0.497984 17.4569C0.497983 17.4569 0.497982 17.4569 0.497981 17.4569C0.497981 17.4569 0.49798 17.4569 0.497979 17.4569C0.497978 17.4569 0.497978 17.4569 0.497977 17.4569C0.497976 17.457 0.497976 17.457 0.497975 17.457C0.497975 17.457 0.497974 17.457 0.497974 17.457C0.497973 17.457 0.497973 17.457 0.497973 17.457C0.497972 17.457 0.497972 17.457 0.497972 17.457C0.497972 17.457 0.497972 17.457 0.497971 17.457C0.497971 17.457 0.497971 17.457 1.20508 18.1641ZM1.24609 18.123L1.9532 18.8302C2.05739 18.726 2.15875 18.6002 2.25117 18.477L1.45117 17.877L0.651172 17.277C0.617728 17.3215 0.590878 17.3555 0.570158 17.3803C0.548635 17.4062 0.53866 17.4163 0.538987 17.4159L1.24609 18.123ZM1.45117 17.877L2.15828 18.5841C2.43935 18.303 2.69573 17.9299 2.93465 17.5118L2.06641 17.0156L1.19816 16.5195C0.999587 16.867 0.845808 17.0681 0.744065 17.1698L1.45117 17.877ZM2.06641 17.0156L2.90338 17.5629C3.46448 16.7047 3.80706 15.6954 3.95974 14.5656L2.96875 14.4316L1.97776 14.2977C1.85701 15.1913 1.59802 15.9047 1.22944 16.4684L2.06641 17.0156ZM2.96875 14.4316L3.71062 13.7611C2.58544 12.5162 2.02366 11.0941 1.99989 9.45426L1 9.46875L0.000105023 9.48324C0.0310274 11.6169 0.781746 13.5033 2.22688 15.1022L2.96875 14.4316ZM1 9.46875L1.99985 9.48599C2.02367 8.10461 2.436 6.86762 3.24577 5.74823L2.43555 5.16211L1.62532 4.57599C0.57572 6.02691 0.0310193 7.66101 0.000148594 9.45151L1 9.46875ZM2.43555 5.16211L3.24577 5.74823C4.06794 4.6117 5.19031 3.68814 6.64373 2.98649L6.20898 2.08594L5.77424 1.18539C4.05578 2.01498 2.66253 3.1422 1.62532 4.57599L2.43555 5.16211ZM6.20898 2.08594L6.63707 2.98968C8.04893 2.3209 9.66822 1.96304 11.5139 1.9374L11.5 0.9375L11.4861 -0.0624036C9.39428 -0.0333503 7.48623 0.374412 5.7809 1.1822L6.20898 2.08594ZM11.5 0.9375L11.4861 1.9374C13.3318 1.96304 14.9511 2.3209 16.3629 2.98968L16.791 2.08594L17.2191 1.1822C15.5138 0.374412 13.6057 -0.0333503 11.5139 -0.0624036L11.5 0.9375ZM16.791 2.08594L16.3563 2.98649C17.8097 3.68814 18.9321 4.6117 19.7542 5.74823L20.5645 5.16211L21.3747 4.57599C20.3375 3.1422 18.9442 2.01498 17.2258 1.18539L16.791 2.08594ZM20.5645 5.16211L19.7542 5.74823C20.564 6.86762 20.9763 8.10461 21.0001 9.48599L22 9.46875L22.9999 9.45151C22.969 7.66101 22.4243 6.02691 21.3747 4.57599L20.5645 5.16211Z" fill="url(#paint1_linear_3153_7427)" mask="url(#path-1-inside-1_3153_7427)"/>
<defs>
<linearGradient id="paint0_linear_3153_7427" x1="7.71512" y1="1" x2="10.2227" y2="18.1864" gradientUnits="userSpaceOnUse">
<stop stop-color="#CDB599"/>
<stop offset="1" stop-color="#B49B7E"/>
</linearGradient>
<linearGradient id="paint1_linear_3153_7427" x1="6.86047" y1="2.08721" x2="9.95721" y2="18.2948" gradientUnits="userSpaceOnUse">
<stop stop-color="#F8E4CE"/>
<stop offset="0.701923" stop-color="#997D5A"/>
<stop offset="1" stop-color="#F1D6B6"/>
</linearGradient>
</defs>
</svg>
