<svg width="21" height="22" viewBox="0 0 21 22" fill="none" xmlns="http://www.w3.org/2000/svg">
<mask id="path-1-inside-1_3153_7258" fill="white">
<path d="M10.5 21.625C8.53125 21.5977 6.76758 21.1191 5.20898 20.1895C3.62305 19.2598 2.36523 18.002 1.43555 16.416C0.505859 14.8574 0.0273438 13.0938 0 11.125C0.0273438 9.15625 0.505859 7.39258 1.43555 5.83398C2.36523 4.24805 3.62305 2.99023 5.20898 2.06055C6.76758 1.13086 8.53125 0.652344 10.5 0.625C12.4688 0.652344 14.2324 1.13086 15.791 2.06055C17.377 2.99023 18.6348 4.24805 19.5645 5.83398C20.4941 7.39258 20.9727 9.15625 21 11.125C20.9727 13.0938 20.4941 14.8574 19.5645 16.416C18.6348 18.002 17.377 19.2598 15.791 20.1895C14.2324 21.1191 12.4688 21.5977 10.5 21.625ZM15.1348 9.19727C15.5176 8.73242 15.5176 8.26758 15.1348 7.80273C14.6699 7.41992 14.2051 7.41992 13.7402 7.80273L9.1875 12.3555L7.25977 10.4277C6.79492 10.0449 6.33008 10.0449 5.86523 10.4277C5.48242 10.8926 5.48242 11.3574 5.86523 11.8223L8.49023 14.4473C8.95508 14.8301 9.41992 14.8301 9.88477 14.4473L15.1348 9.19727Z"/>
</mask>
<path d="M10.5 21.625C8.53125 21.5977 6.76758 21.1191 5.20898 20.1895C3.62305 19.2598 2.36523 18.002 1.43555 16.416C0.505859 14.8574 0.0273438 13.0938 0 11.125C0.0273438 9.15625 0.505859 7.39258 1.43555 5.83398C2.36523 4.24805 3.62305 2.99023 5.20898 2.06055C6.76758 1.13086 8.53125 0.652344 10.5 0.625C12.4688 0.652344 14.2324 1.13086 15.791 2.06055C17.377 2.99023 18.6348 4.24805 19.5645 5.83398C20.4941 7.39258 20.9727 9.15625 21 11.125C20.9727 13.0938 20.4941 14.8574 19.5645 16.416C18.6348 18.002 17.377 19.2598 15.791 20.1895C14.2324 21.1191 12.4688 21.5977 10.5 21.625ZM15.1348 9.19727C15.5176 8.73242 15.5176 8.26758 15.1348 7.80273C14.6699 7.41992 14.2051 7.41992 13.7402 7.80273L9.1875 12.3555L7.25977 10.4277C6.79492 10.0449 6.33008 10.0449 5.86523 10.4277C5.48242 10.8926 5.48242 11.3574 5.86523 11.8223L8.49023 14.4473C8.95508 14.8301 9.41992 14.8301 9.88477 14.4473L15.1348 9.19727Z" fill="white"/>
<path d="M10.5 21.625C8.53125 21.5977 6.76758 21.1191 5.20898 20.1895C3.62305 19.2598 2.36523 18.002 1.43555 16.416C0.505859 14.8574 0.0273438 13.0938 0 11.125C0.0273438 9.15625 0.505859 7.39258 1.43555 5.83398C2.36523 4.24805 3.62305 2.99023 5.20898 2.06055C6.76758 1.13086 8.53125 0.652344 10.5 0.625C12.4688 0.652344 14.2324 1.13086 15.791 2.06055C17.377 2.99023 18.6348 4.24805 19.5645 5.83398C20.4941 7.39258 20.9727 9.15625 21 11.125C20.9727 13.0938 20.4941 14.8574 19.5645 16.416C18.6348 18.002 17.377 19.2598 15.791 20.1895C14.2324 21.1191 12.4688 21.5977 10.5 21.625ZM15.1348 9.19727C15.5176 8.73242 15.5176 8.26758 15.1348 7.80273C14.6699 7.41992 14.2051 7.41992 13.7402 7.80273L9.1875 12.3555L7.25977 10.4277C6.79492 10.0449 6.33008 10.0449 5.86523 10.4277C5.48242 10.8926 5.48242 11.3574 5.86523 11.8223L8.49023 14.4473C8.95508 14.8301 9.41992 14.8301 9.88477 14.4473L15.1348 9.19727Z" fill="url(#paint0_linear_3153_7258)"/>
<path d="M10.5 21.625L10.4861 22.6249L10.5 22.6251L10.5139 22.6249L10.5 21.625ZM5.20898 20.1895L5.72128 19.3306L5.7147 19.3268L5.20898 20.1895ZM1.43555 16.416L2.29827 15.9103L2.29437 15.9037L1.43555 16.416ZM0 11.125L-0.999904 11.1111L-1.0001 11.125L-0.999904 11.1389L0 11.125ZM1.43555 5.83398L2.29439 6.34628L2.29824 6.3397L1.43555 5.83398ZM5.20898 2.06055L5.71472 2.92327L5.72126 2.91937L5.20898 2.06055ZM10.5 0.625L10.5139 -0.374904L10.5 -0.375097L10.4861 -0.374904L10.5 0.625ZM15.791 2.06055L15.2787 2.91939L15.2853 2.92324L15.791 2.06055ZM19.5645 5.83398L18.7017 6.33972L18.7056 6.34626L19.5645 5.83398ZM21 11.125L21.9999 11.1389L22.0001 11.125L21.9999 11.1111L21 11.125ZM19.5645 16.416L18.7056 15.9037L18.7018 15.9103L19.5645 16.416ZM15.791 20.1895L15.2853 19.3267L15.2787 19.3306L15.791 20.1895ZM15.1348 9.19727L15.8419 9.90437L15.876 9.87024L15.9067 9.83297L15.1348 9.19727ZM15.1348 7.80273L15.9067 7.16703L15.8452 7.09232L15.7705 7.0308L15.1348 7.80273ZM13.7402 7.80273L13.1045 7.0308L13.0673 7.06149L13.0331 7.09563L13.7402 7.80273ZM9.1875 12.3555L8.48039 13.0626L9.1875 13.7697L9.89461 13.0626L9.1875 12.3555ZM7.25977 10.4277L7.96687 9.72063L7.93274 9.68649L7.89547 9.6558L7.25977 10.4277ZM5.86523 10.4277L5.22953 9.6558L5.15482 9.71732L5.0933 9.79203L5.86523 10.4277ZM5.86523 11.8223L5.0933 12.458L5.12399 12.4952L5.15813 12.5294L5.86523 11.8223ZM8.49023 14.4473L7.78313 15.1544L7.81726 15.1885L7.85453 15.2192L8.49023 14.4473ZM9.88477 14.4473L10.5205 15.2192L10.5577 15.1885L10.5919 15.1544L9.88477 14.4473ZM10.5 21.625L10.5139 20.6251C8.70539 20.6 7.11632 20.1628 5.72126 19.3306L5.20898 20.1895L4.69671 21.0483C6.41884 22.0755 8.35711 22.5953 10.4861 22.6249L10.5 21.625ZM5.20898 20.1895L5.7147 19.3268C4.27633 18.4836 3.14143 17.3487 2.29824 15.9103L1.43555 16.416L0.572849 16.9217C1.58904 18.6552 2.96976 20.036 4.70326 21.0522L5.20898 20.1895ZM1.43555 16.416L2.29437 15.9037C1.46223 14.5087 1.02502 12.9196 0.999904 11.1111L0 11.125L-0.999904 11.1389C-0.970334 13.2679 -0.450511 15.2062 0.576727 16.9283L1.43555 16.416ZM0 11.125L0.999904 11.1389C1.02502 9.33039 1.46223 7.74132 2.29437 6.34626L1.43555 5.83398L0.576727 5.32171C-0.450511 7.04384 -0.970334 8.98211 -0.999904 11.1111L0 11.125ZM1.43555 5.83398L2.29824 6.3397C3.14143 4.90133 4.27633 3.76643 5.7147 2.92324L5.20898 2.06055L4.70326 1.19785C2.96976 2.21404 1.58904 3.59476 0.572849 5.32826L1.43555 5.83398ZM5.20898 2.06055L5.72126 2.91937C7.11632 2.08723 8.70539 1.65002 10.5139 1.6249L10.5 0.625L10.4861 -0.374904C8.35711 -0.345334 6.41884 0.174489 4.69671 1.20173L5.20898 2.06055ZM10.5 0.625L10.4861 1.6249C12.2946 1.65002 13.8837 2.08723 15.2787 2.91937L15.791 2.06055L16.3033 1.20173C14.5812 0.174489 12.6429 -0.345334 10.5139 -0.374904L10.5 0.625ZM15.791 2.06055L15.2853 2.92324C16.7237 3.76643 17.8586 4.90133 18.7018 6.3397L19.5645 5.83398L20.4272 5.32826C19.411 3.59476 18.0302 2.21404 16.2967 1.19785L15.791 2.06055ZM19.5645 5.83398L18.7056 6.34626C19.5378 7.74132 19.975 9.33039 20.0001 11.1389L21 11.125L21.9999 11.1111C21.9703 8.98211 21.4505 7.04384 20.4233 5.32171L19.5645 5.83398ZM21 11.125L20.0001 11.1111C19.975 12.9196 19.5378 14.5087 18.7056 15.9037L19.5645 16.416L20.4233 16.9283C21.4505 15.2062 21.9703 13.2679 21.9999 11.1389L21 11.125ZM19.5645 16.416L18.7018 15.9103C17.8586 17.3487 16.7237 18.4836 15.2853 19.3268L15.791 20.1895L16.2967 21.0522C18.0302 20.036 19.411 18.6552 20.4272 16.9217L19.5645 16.416ZM15.791 20.1895L15.2787 19.3306C13.8837 20.1628 12.2946 20.6 10.4861 20.6251L10.5 21.625L10.5139 22.6249C12.6429 22.5953 14.5812 22.0755 16.3033 21.0483L15.791 20.1895ZM15.1348 9.19727L15.9067 9.83297C16.2013 9.47519 16.4219 9.0255 16.4219 8.5C16.4219 7.9745 16.2013 7.52481 15.9067 7.16703L15.1348 7.80273L14.3628 8.43844C14.4073 8.49246 14.4221 8.52413 14.4254 8.53212C14.4276 8.53747 14.4219 8.52472 14.4219 8.5C14.4219 8.47528 14.4276 8.46253 14.4254 8.46788C14.4221 8.47587 14.4073 8.50754 14.3628 8.56156L15.1348 9.19727ZM15.1348 7.80273L15.7705 7.0308C15.4127 6.73616 14.963 6.51562 14.4375 6.51562C13.912 6.51562 13.4623 6.73616 13.1045 7.0308L13.7402 7.80273L14.3759 8.57466C14.43 8.53018 14.4616 8.51537 14.4696 8.51208C14.475 8.50988 14.4622 8.51562 14.4375 8.51562C14.4128 8.51562 14.4 8.50988 14.4054 8.51208C14.4134 8.51537 14.445 8.53018 14.4991 8.57466L15.1348 7.80273ZM13.7402 7.80273L13.0331 7.09563L8.48039 11.6484L9.1875 12.3555L9.89461 13.0626L14.4473 8.50984L13.7402 7.80273ZM9.1875 12.3555L9.89461 11.6484L7.96687 9.72063L7.25977 10.4277L6.55266 11.1348L8.48039 13.0626L9.1875 12.3555ZM7.25977 10.4277L7.89547 9.6558C7.53769 9.36116 7.088 9.14062 6.5625 9.14062C6.037 9.14062 5.58731 9.36116 5.22953 9.6558L5.86523 10.4277L6.50094 11.1997C6.55496 11.1552 6.58663 11.1404 6.59462 11.1371C6.59997 11.1349 6.58722 11.1406 6.5625 11.1406C6.53778 11.1406 6.52503 11.1349 6.53038 11.1371C6.53837 11.1404 6.57004 11.1552 6.62406 11.1997L7.25977 10.4277ZM5.86523 10.4277L5.0933 9.79203C4.79866 10.1498 4.57812 10.5995 4.57812 11.125C4.57812 11.6505 4.79866 12.1002 5.0933 12.458L5.86523 11.8223L6.63716 11.1866C6.59268 11.1325 6.57787 11.1009 6.57458 11.0929C6.57238 11.0875 6.57812 11.1003 6.57812 11.125C6.57812 11.1497 6.57238 11.1625 6.57458 11.1571C6.57787 11.1491 6.59268 11.1175 6.63716 11.0634L5.86523 10.4277ZM5.86523 11.8223L5.15813 12.5294L7.78313 15.1544L8.49023 14.4473L9.19734 13.7402L6.57234 11.1152L5.86523 11.8223ZM8.49023 14.4473L7.85453 15.2192C8.21231 15.5138 8.662 15.7344 9.1875 15.7344C9.713 15.7344 10.1627 15.5138 10.5205 15.2192L9.88477 14.4473L9.24906 13.6753C9.19504 13.7198 9.16337 13.7346 9.15538 13.7379C9.15003 13.7401 9.16278 13.7344 9.1875 13.7344C9.21222 13.7344 9.22497 13.7401 9.21962 13.7379C9.21163 13.7346 9.17996 13.7198 9.12594 13.6753L8.49023 14.4473ZM9.88477 14.4473L10.5919 15.1544L15.8419 9.90437L15.1348 9.19727L14.4277 8.49016L9.17766 13.7402L9.88477 14.4473Z" fill="url(#paint1_linear_3153_7258)" mask="url(#path-1-inside-1_3153_7258)"/>
<defs>
<linearGradient id="paint0_linear_3153_7258" x1="6.71512" y1="2" x2="9.22265" y2="19.1864" gradientUnits="userSpaceOnUse">
<stop stop-color="#CDB599"/>
<stop offset="1" stop-color="#B49B7E"/>
</linearGradient>
<linearGradient id="paint1_linear_3153_7258" x1="5.86047" y1="3.08721" x2="8.95721" y2="19.2948" gradientUnits="userSpaceOnUse">
<stop stop-color="#F8E4CE"/>
<stop offset="0.701923" stop-color="#997D5A"/>
<stop offset="1" stop-color="#F1D6B6"/>
</linearGradient>
</defs>
</svg>
