<svg width="29" height="30" viewBox="0 0 29 30" fill="none" xmlns="http://www.w3.org/2000/svg">
<mask id="path-1-inside-1_3153_7125" fill="white">
<path d="M15.2363 0.794922L25.9414 5.32617C26.5833 5.59049 27.0931 6.00586 27.4707 6.57227C27.8861 7.13867 28.0938 7.79948 28.0938 8.55469C28.1315 10.4805 27.8105 12.7461 27.1309 15.3516C26.4512 17.957 25.224 20.487 23.4492 22.9414C21.7122 25.4336 19.2201 27.4915 15.9727 29.1152C14.9909 29.5684 14.0091 29.5684 13.0273 29.1152C9.77995 27.4915 7.28776 25.4336 5.55078 22.9414C3.77604 20.487 2.54883 17.957 1.86914 15.3516C1.18945 12.7461 0.86849 10.4805 0.90625 8.55469C0.90625 7.79948 1.11393 7.13867 1.5293 6.57227C1.9069 6.00586 2.41667 5.59049 3.05859 5.32617L13.7637 0.794922C13.9902 0.681641 14.2357 0.625 14.5 0.625C14.7643 0.625 15.0098 0.681641 15.2363 0.794922ZM20.9004 12.4629C21.429 11.821 21.429 11.179 20.9004 10.5371C20.2585 10.0085 19.6165 10.0085 18.9746 10.5371L12.6875 16.8242L10.0254 14.1621C9.38346 13.6335 8.74154 13.6335 8.09961 14.1621C7.57096 14.804 7.57096 15.446 8.09961 16.0879L11.7246 19.7129C12.3665 20.2415 13.0085 20.2415 13.6504 19.7129L20.9004 12.4629Z"/>
</mask>
<path d="M15.2363 0.794922L25.9414 5.32617C26.5833 5.59049 27.0931 6.00586 27.4707 6.57227C27.8861 7.13867 28.0938 7.79948 28.0938 8.55469C28.1315 10.4805 27.8105 12.7461 27.1309 15.3516C26.4512 17.957 25.224 20.487 23.4492 22.9414C21.7122 25.4336 19.2201 27.4915 15.9727 29.1152C14.9909 29.5684 14.0091 29.5684 13.0273 29.1152C9.77995 27.4915 7.28776 25.4336 5.55078 22.9414C3.77604 20.487 2.54883 17.957 1.86914 15.3516C1.18945 12.7461 0.86849 10.4805 0.90625 8.55469C0.90625 7.79948 1.11393 7.13867 1.5293 6.57227C1.9069 6.00586 2.41667 5.59049 3.05859 5.32617L13.7637 0.794922C13.9902 0.681641 14.2357 0.625 14.5 0.625C14.7643 0.625 15.0098 0.681641 15.2363 0.794922ZM20.9004 12.4629C21.429 11.821 21.429 11.179 20.9004 10.5371C20.2585 10.0085 19.6165 10.0085 18.9746 10.5371L12.6875 16.8242L10.0254 14.1621C9.38346 13.6335 8.74154 13.6335 8.09961 14.1621C7.57096 14.804 7.57096 15.446 8.09961 16.0879L11.7246 19.7129C12.3665 20.2415 13.0085 20.2415 13.6504 19.7129L20.9004 12.4629Z" fill="white"/>
<path d="M15.2363 0.794922L25.9414 5.32617C26.5833 5.59049 27.0931 6.00586 27.4707 6.57227C27.8861 7.13867 28.0938 7.79948 28.0938 8.55469C28.1315 10.4805 27.8105 12.7461 27.1309 15.3516C26.4512 17.957 25.224 20.487 23.4492 22.9414C21.7122 25.4336 19.2201 27.4915 15.9727 29.1152C14.9909 29.5684 14.0091 29.5684 13.0273 29.1152C9.77995 27.4915 7.28776 25.4336 5.55078 22.9414C3.77604 20.487 2.54883 17.957 1.86914 15.3516C1.18945 12.7461 0.86849 10.4805 0.90625 8.55469C0.90625 7.79948 1.11393 7.13867 1.5293 6.57227C1.9069 6.00586 2.41667 5.59049 3.05859 5.32617L13.7637 0.794922C13.9902 0.681641 14.2357 0.625 14.5 0.625C14.7643 0.625 15.0098 0.681641 15.2363 0.794922ZM20.9004 12.4629C21.429 11.821 21.429 11.179 20.9004 10.5371C20.2585 10.0085 19.6165 10.0085 18.9746 10.5371L12.6875 16.8242L10.0254 14.1621C9.38346 13.6335 8.74154 13.6335 8.09961 14.1621C7.57096 14.804 7.57096 15.446 8.09961 16.0879L11.7246 19.7129C12.3665 20.2415 13.0085 20.2415 13.6504 19.7129L20.9004 12.4629Z" fill="url(#paint0_linear_3153_7125)"/>
<path d="M15.2363 0.794922L14.7891 1.68935L14.8174 1.70349L14.8465 1.71582L15.2363 0.794922ZM25.9414 5.32617L25.5516 6.24712L25.5607 6.25085L25.9414 5.32617ZM27.4707 6.57227L26.6387 7.12697L26.6511 7.14558L26.6643 7.16363L27.4707 6.57227ZM28.0938 8.55469H27.0938V8.56449L27.0939 8.57429L28.0938 8.55469ZM23.4492 22.9414L22.6389 22.3555L22.6338 22.3625L22.6288 22.3696L23.4492 22.9414ZM15.9727 29.1152L16.3917 30.0232L16.4059 30.0166L16.4199 30.0097L15.9727 29.1152ZM13.0273 29.1152L12.5801 30.0097L12.5941 30.0166L12.6083 30.0232L13.0273 29.1152ZM5.55078 22.9414L6.37118 22.3696L6.36622 22.3625L6.36113 22.3555L5.55078 22.9414ZM0.90625 8.55469L1.90606 8.57429L1.90625 8.56449V8.55469H0.90625ZM1.5293 6.57227L2.3357 7.16363L2.34893 7.14558L2.36135 7.12697L1.5293 6.57227ZM3.05859 5.32617L3.43936 6.25089L3.44839 6.24707L3.05859 5.32617ZM13.7637 0.794922L14.1535 1.71582L14.1826 1.70349L14.2109 1.68935L13.7637 0.794922ZM20.9004 12.4629L21.6075 13.17L21.6416 13.1359L21.6723 13.0986L20.9004 12.4629ZM20.9004 10.5371L21.6723 9.9014L21.6108 9.8267L21.5361 9.76518L20.9004 10.5371ZM18.9746 10.5371L18.3389 9.76518L18.3016 9.79587L18.2675 9.83L18.9746 10.5371ZM12.6875 16.8242L11.9804 17.5313L12.6875 18.2384L13.3946 17.5313L12.6875 16.8242ZM10.0254 14.1621L10.7325 13.455L10.6984 13.4209L10.6611 13.3902L10.0254 14.1621ZM8.09961 14.1621L7.4639 13.3902L7.3892 13.4517L7.32768 13.5264L8.09961 14.1621ZM8.09961 16.0879L7.32768 16.7236L7.35837 16.7609L7.3925 16.795L8.09961 16.0879ZM11.7246 19.7129L11.0175 20.42L11.0516 20.4541L11.0889 20.4848L11.7246 19.7129ZM13.6504 19.7129L14.2861 20.4848L14.3234 20.4541L14.3575 20.42L13.6504 19.7129ZM15.2363 0.794922L14.8465 1.71582L25.5516 6.24707L25.9414 5.32617L26.3312 4.40527L15.6261 -0.125978L15.2363 0.794922ZM25.9414 5.32617L25.5607 6.25085C26.0226 6.44106 26.3737 6.72947 26.6387 7.12697L27.4707 6.57227L28.3028 6.01757C27.8125 5.28225 27.1441 4.73993 26.3222 4.40149L25.9414 5.32617ZM27.4707 6.57227L26.6643 7.16363C26.9442 7.54534 27.0938 7.99523 27.0938 8.55469H28.0938H29.0938C29.0938 7.60373 28.8279 6.732 28.2771 5.9809L27.4707 6.57227ZM28.0938 8.55469L27.0939 8.57429C27.1293 10.38 26.8282 12.5501 26.1632 15.0991L27.1309 15.3516L28.0985 15.604C28.7929 12.9421 29.1337 10.5809 29.0936 8.53508L28.0938 8.55469ZM27.1309 15.3516L26.1632 15.0991C25.5185 17.5706 24.35 19.989 22.6389 22.3555L23.4492 22.9414L24.2596 23.5274C26.0979 20.9849 27.3838 18.3435 28.0985 15.604L27.1309 15.3516ZM23.4492 22.9414L22.6288 22.3696C21.0043 24.7004 18.6525 26.6573 15.5254 28.2208L15.9727 29.1152L16.4199 30.0097C19.7876 28.3258 22.4201 26.1668 24.2696 23.5132L23.4492 22.9414ZM15.9727 29.1152L15.5536 28.2073C14.8377 28.5377 14.1623 28.5377 13.4464 28.2073L13.0273 29.1152L12.6083 30.0232C13.856 30.599 15.144 30.599 16.3917 30.0232L15.9727 29.1152ZM13.0273 29.1152L13.4746 28.2208C10.3475 26.6573 7.99565 24.7004 6.37118 22.3696L5.55078 22.9414L4.73038 23.5132C6.57987 26.1668 9.21243 28.3258 12.5801 30.0097L13.0273 29.1152ZM5.55078 22.9414L6.36113 22.3555C4.65002 19.989 3.48149 17.5706 2.83676 15.0991L1.86914 15.3516L0.901523 15.604C1.61617 18.3435 2.90207 20.9849 4.74043 23.5274L5.55078 22.9414ZM1.86914 15.3516L2.83676 15.0991C2.17179 12.5501 1.87065 10.38 1.90606 8.57429L0.90625 8.55469L-0.0935578 8.53508C-0.133672 10.5809 0.207119 12.9421 0.901523 15.604L1.86914 15.3516ZM0.90625 8.55469H1.90625C1.90625 7.99523 2.05578 7.54534 2.3357 7.16363L1.5293 6.57227L0.722892 5.9809C0.172084 6.732 -0.09375 7.60373 -0.09375 8.55469H0.90625ZM1.5293 6.57227L2.36135 7.12697C2.62635 6.72947 2.97741 6.44106 3.43934 6.25085L3.05859 5.32617L2.67784 4.40149C1.85592 4.73993 1.18745 5.28225 0.697247 6.01757L1.5293 6.57227ZM3.05859 5.32617L3.44839 6.24707L14.1535 1.71582L13.7637 0.794922L13.3739 -0.125978L2.66879 4.40527L3.05859 5.32617ZM13.7637 0.794922L14.2109 1.68935C14.2925 1.64854 14.384 1.625 14.5 1.625V0.625V-0.375C14.0874 -0.375 13.688 -0.28526 13.3165 -0.0995054L13.7637 0.794922ZM14.5 0.625V1.625C14.616 1.625 14.7075 1.64854 14.7891 1.68935L15.2363 0.794922L15.6835 -0.0995054C15.312 -0.28526 14.9126 -0.375 14.5 -0.375V0.625ZM20.9004 12.4629L21.6723 13.0986C22.0399 12.6523 22.2969 12.114 22.2969 11.5C22.2969 10.886 22.0399 10.3477 21.6723 9.9014L20.9004 10.5371L20.1285 11.1728C20.2895 11.3684 20.2969 11.4721 20.2969 11.5C20.2969 11.5279 20.2895 11.6316 20.1285 11.8272L20.9004 12.4629ZM20.9004 10.5371L21.5361 9.76518C21.0898 9.39762 20.5515 9.14062 19.9375 9.14062C19.3235 9.14062 18.7852 9.39762 18.3389 9.76518L18.9746 10.5371L19.6103 11.309C19.8059 11.148 19.9096 11.1406 19.9375 11.1406C19.9654 11.1406 20.0691 11.148 20.2647 11.309L20.9004 10.5371ZM18.9746 10.5371L18.2675 9.83L11.9804 16.1171L12.6875 16.8242L13.3946 17.5313L19.6817 11.2442L18.9746 10.5371ZM12.6875 16.8242L13.3946 16.1171L10.7325 13.455L10.0254 14.1621L9.31828 14.8692L11.9804 17.5313L12.6875 16.8242ZM10.0254 14.1621L10.6611 13.3902C10.2148 13.0226 9.67654 12.7656 9.0625 12.7656C8.44846 12.7656 7.91022 13.0226 7.4639 13.3902L8.09961 14.1621L8.73532 14.934C8.93092 14.773 9.03462 14.7656 9.0625 14.7656C9.09038 14.7656 9.19408 14.773 9.38968 14.934L10.0254 14.1621ZM8.09961 14.1621L7.32768 13.5264C6.96012 13.9727 6.70312 14.511 6.70312 15.125C6.70312 15.739 6.96012 16.2773 7.32768 16.7236L8.09961 16.0879L8.87154 15.4522C8.71045 15.2566 8.70312 15.1529 8.70312 15.125C8.70312 15.0971 8.71045 14.9934 8.87154 14.7978L8.09961 14.1621ZM8.09961 16.0879L7.3925 16.795L11.0175 20.42L11.7246 19.7129L12.4317 19.0058L8.80672 15.3808L8.09961 16.0879ZM11.7246 19.7129L11.0889 20.4848C11.5352 20.8524 12.0735 21.1094 12.6875 21.1094C13.3015 21.1094 13.8398 20.8524 14.2861 20.4848L13.6504 19.7129L13.0147 18.941C12.8191 19.102 12.7154 19.1094 12.6875 19.1094C12.6596 19.1094 12.5559 19.102 12.3603 18.941L11.7246 19.7129ZM13.6504 19.7129L14.3575 20.42L21.6075 13.17L20.9004 12.4629L20.1933 11.7558L12.9433 19.0058L13.6504 19.7129Z" fill="url(#paint1_linear_3153_7125)" mask="url(#path-1-inside-1_3153_7125)"/>
<defs>
<linearGradient id="paint0_linear_3153_7125" x1="9.27326" y1="2" x2="12.8889" y2="26.2403" gradientUnits="userSpaceOnUse">
<stop stop-color="#CDB599"/>
<stop offset="1" stop-color="#B49B7E"/>
</linearGradient>
<linearGradient id="paint1_linear_3153_7125" x1="8.09302" y1="3.53488" x2="12.5554" y2="26.3799" gradientUnits="userSpaceOnUse">
<stop stop-color="#F8E4CE"/>
<stop offset="0.701923" stop-color="#997D5A"/>
<stop offset="1" stop-color="#F1D6B6"/>
</linearGradient>
</defs>
</svg>
