<svg width="24" height="24" viewBox="0 0 24 24" fill="none" xmlns="http://www.w3.org/2000/svg">
<path d="M11.25 16.5V12.75H7.5C7.03125 12.7188 6.78125 12.4688 6.75 12C6.78125 11.5312 7.03125 11.2812 7.5 11.25H11.25V7.5C11.2812 7.03125 11.5312 6.78125 12 6.75C12.4688 6.78125 12.7188 7.03125 12.75 7.5V11.25H16.5C16.9688 11.2812 17.2188 11.5312 17.25 12C17.2188 12.4688 16.9688 12.7188 16.5 12.75H12.75V16.5C12.7188 16.9688 12.4688 17.2188 12 17.25C11.5312 17.2188 11.2812 16.9688 11.25 16.5ZM24 12C23.9688 14.25 23.4219 16.2656 22.3594 18.0469C21.2969 19.8594 19.8594 21.2969 18.0469 22.3594C16.2656 23.4219 14.25 23.9688 12 24C9.75 23.9688 7.73438 23.4219 5.95312 22.3594C4.14062 21.2969 2.70312 19.8594 1.64062 18.0469C0.578125 16.2656 0.03125 14.25 0 12C0.03125 9.75 0.578125 7.73438 1.64062 5.95312C2.70312 4.14062 4.14062 2.70313 5.95312 1.64062C7.73438 0.578125 9.75 0.03125 12 0C14.25 0.03125 16.2656 0.578125 18.0469 1.64062C19.8594 2.70313 21.2969 4.14062 22.3594 5.95312C23.4219 7.73438 23.9688 9.75 24 12ZM12 1.5C10.0312 1.53125 8.26562 2.01562 6.70312 2.95312C5.10938 3.85937 3.85938 5.10938 2.95312 6.70312C2.01562 8.26562 1.53125 10.0312 1.5 12C1.53125 13.9688 2.01562 15.7344 2.95312 17.2969C3.85938 18.8906 5.10938 20.1406 6.70312 21.0469C8.26562 21.9844 10.0312 22.4688 12 22.5C13.9688 22.4688 15.7344 21.9844 17.2969 21.0469C18.8906 20.1406 20.1406 18.8906 21.0469 17.2969C21.9844 15.7344 22.4688 13.9688 22.5 12C22.4688 10.0312 21.9844 8.26562 21.0469 6.70312C20.1406 5.10938 18.8906 3.85937 17.2969 2.95312C15.7344 2.01562 13.9688 1.53125 12 1.5Z" fill="#B49B7E"/>
</svg>
