<svg width="86" height="86" viewBox="0 0 86 86" fill="none" xmlns="http://www.w3.org/2000/svg">
<rect x="1" y="1" width="84" height="84" rx="27" fill="url(#paint0_linear_3153_7303)"/>
<rect x="1" y="1" width="84" height="84" rx="27" stroke="url(#paint1_linear_3153_7303)" stroke-width="2"/>
<path d="M27.0967 23.751C28.5113 23.8418 29.835 23.8721 31.6865 23.8721H40.5889C43.5288 23.8721 45.9018 24.5489 47.5527 25.8701C49.1608 27.1571 50.0529 29.0328 50.1348 31.4082C52.5859 31.634 54.5614 32.3749 55.9375 33.6143C57.3608 34.8961 58.1182 36.6868 58.1182 38.9082C58.1181 41.2957 57.157 43.1275 55.6533 44.4502L55.6484 44.4541C54.9455 45.0435 54.3029 45.401 53.2256 45.793C54.4761 46.0985 55.3189 46.4738 56.1807 47.1553L56.3906 47.3271L56.3916 47.3281C58.0844 48.7742 59.1689 50.8815 59.1689 53.5117C59.1689 56.2375 58.2003 58.4038 56.4199 59.8838C54.6459 61.3584 52.0944 62.1279 48.9658 62.1279H39.9092C38.15 62.1279 36.7025 62.1582 35.2881 62.249L34.9707 62.2695L35.0264 61.957C35.3015 60.3922 35.3936 59.3723 35.3936 57.0713V40.8311H30.9785V49.9219C30.9785 51.9528 31.0403 52.9715 31.2842 54.3818L31.335 54.6748H26.79L26.834 54.3867C27.0483 52.9703 27.1406 51.8876 27.1406 49.9521V28.5938C27.1406 26.8675 27.0785 25.6037 26.834 24.0391L26.7861 23.7305L27.0967 23.751ZM39.1699 58.9209H48.6875C50.8629 58.9209 52.4875 58.4108 53.5615 57.4688C54.6294 56.5319 55.1907 55.1338 55.1758 53.2705V53.2686C55.1758 51.3573 54.6056 49.9434 53.5303 49.0029C52.515 48.1151 51.0146 47.6169 49.0205 47.5596C49.2117 47.9646 49.4069 48.3796 49.6064 48.8135L50.4297 50.6084L50.4307 50.6123C51.103 52.1464 51.8662 53.3466 52.4268 54.2969L52.6494 54.6748H47.5039L47.4805 54.4502C47.3615 53.3083 46.8229 51.7012 45.1191 47.707L45.1113 47.6895L45.1064 47.6709C45.0971 47.6343 45.0823 47.5992 45.0615 47.5547H39.1699V58.9209ZM49.6924 34.6113C49.2341 35.8822 48.4592 36.9526 47.3994 37.8477C46.3432 38.7778 45.4257 39.2546 43.749 39.6865C44.1721 39.8819 44.5576 40.1397 44.9277 40.4814C45.5148 41.0234 46.055 41.7707 46.6475 42.7988L46.8633 43.1738H42.752L42.6768 43.0742C42.1205 42.3343 41.5574 41.82 40.9482 41.4717C40.4124 41.1653 39.8306 40.9812 39.1699 40.8916V44.3164H48.4707C50.3157 44.3164 51.7499 43.8406 52.7188 42.9873C53.683 42.138 54.2177 40.8882 54.2178 39.2734C54.2178 37.829 53.8223 36.7357 53.0586 35.9697C52.3222 35.2313 51.2123 34.7658 49.6924 34.6113ZM30.9785 37.5625H40.3105C42.0797 37.5625 43.6822 36.9422 44.71 35.9307C45.1243 35.5228 45.4549 35.0567 45.6895 34.5332H39.1699V36.1152H35.3623V35.7441C35.3623 34.0488 35.3006 32.9686 35.0566 31.5576L35.0029 31.2422L35.3213 31.2656C36.5779 31.3561 37.5577 31.3564 39.9092 31.3564H46.1299C45.9965 30.0064 45.4805 28.9868 44.6201 28.29C43.6985 27.5436 42.3475 27.1406 40.5576 27.1406H30.9785V37.5625Z" fill="url(#paint2_linear_3153_7303)" stroke="url(#paint3_linear_3153_7303)" stroke-width="0.5"/>
<rect x="8.5" y="8.5" width="69" height="69" rx="20.5" stroke="black"/>
<rect x="8.5" y="8.5" width="69" height="69" rx="20.5" stroke="url(#paint4_linear_3153_7303)"/>
<defs>
<linearGradient id="paint0_linear_3153_7303" x1="27.5" y1="3.25746e-08" x2="43" y2="86" gradientUnits="userSpaceOnUse">
<stop stop-color="#CDB599"/>
<stop offset="1" stop-color="#B49B7E"/>
</linearGradient>
<linearGradient id="paint1_linear_3153_7303" x1="24" y1="5.5" x2="43" y2="86" gradientUnits="userSpaceOnUse">
<stop stop-color="#F8E4CE"/>
<stop offset="0.701923" stop-color="#997D5A"/>
<stop offset="1" stop-color="#CEB79E"/>
</linearGradient>
<linearGradient id="paint2_linear_3153_7303" x1="43" y1="24" x2="43" y2="62" gradientUnits="userSpaceOnUse">
<stop stop-color="#6A5945"/>
<stop offset="1"/>
</linearGradient>
<linearGradient id="paint3_linear_3153_7303" x1="35.966" y1="26.4302" x2="49.9224" y2="56.8901" gradientUnits="userSpaceOnUse">
<stop stop-color="#F8E4CE"/>
<stop offset="0.701923" stop-color="#997D5A" stop-opacity="0"/>
<stop offset="1" stop-color="#DCC9B2"/>
</linearGradient>
<linearGradient id="paint4_linear_3153_7303" x1="27.5349" y1="12.4767" x2="43" y2="78" gradientUnits="userSpaceOnUse">
<stop stop-color="#F8E4CE"/>
<stop offset="0.701923" stop-color="#997D5A"/>
<stop offset="1" stop-color="#CEB79E"/>
</linearGradient>
</defs>
</svg>
