<svg width="211" height="45" viewBox="0 0 211 45" fill="none" xmlns="http://www.w3.org/2000/svg">
<path fill-rule="evenodd" clip-rule="evenodd" d="M32.8162 0.522461C29.4497 0.522461 26.6333 1.65436 24.3718 3.92338C22.1104 6.1924 20.9797 9.01434 20.9797 12.3892C20.9797 15.7536 22.1104 18.7216 24.3718 20.9906C26.6333 23.2648 29.4446 24.4019 32.811 24.4019C36.1774 24.4019 38.9888 23.27 41.2502 21.001C43.5116 18.732 44.6423 15.764 44.6423 12.3892C44.6423 9.01434 43.5116 6.1924 41.2502 3.92338C38.9939 1.65436 36.1774 0.522461 32.8162 0.522461ZM37.9403 17.9809C36.6246 19.4049 34.9234 20.1195 32.8264 20.1195C30.7141 20.1195 28.9975 19.4049 27.6817 17.9809C26.366 16.5569 25.7081 14.5017 25.7081 12.3892C25.7081 10.2766 26.366 8.51359 27.6817 7.08958C28.9975 5.66557 30.6987 4.95096 32.7956 4.95096C34.908 4.95096 36.6246 5.66557 37.9403 7.08958C39.2561 8.51359 39.9139 10.2819 39.9139 12.3892C39.9139 14.5017 39.2561 16.5569 37.9403 17.9809ZM106.235 11.5807C107.283 10.8765 107.874 9.5203 107.946 7.41298C107.946 4.0903 105.618 0.892807 101.681 0.663297H91.0578V24.3863L102.755 24.4019C106.8 24.4019 109.658 21.9973 109.658 17.3393C109.658 15.1277 107.977 12.53 106.235 11.5807ZM95.7502 4.94575H100.509C102.36 5.00834 103.084 6.0307 103.084 7.30344C103.084 8.57618 102.365 9.70808 100.484 9.73938H95.7451V4.94575H95.7502ZM101.733 20.1612H95.7502V14.0375H101.774C103.67 14.0949 104.806 15.5449 104.806 17.0941C104.806 18.6433 103.655 20.1351 101.733 20.1612ZM153.046 20.1299L154.614 24.4072L159.589 24.3915L150.25 0.522461H145.573L136.214 24.4072H141.205L142.772 20.1299H153.046ZM148.035 6.85485L151.499 15.8266H144.484L148.035 6.85485ZM179.607 16.39L168.105 0.600703L163.387 0.642432V24.4072H168.064V8.55532L179.649 24.3863L184.285 24.4072V0.642432H179.607V16.39ZM199.107 0.652864H190.092V24.3863H199.107C206.148 24.3863 211 20.3073 211 12.3944C211 4.47108 205.783 0.652864 199.107 0.652864ZM199.107 20.1299H194.774V4.98226H199.107C203.255 4.98226 206.308 7.64249 206.323 12.3944C206.313 17.1411 203.255 20.1195 199.107 20.1299ZM17.382 7.7416C17.382 7.7416 17.3615 0.647648 9.73949 0.647648L0 0.689377V24.428H4.67701V15.1589H8.948L14.545 24.428H19.9107L13.6404 14.34C16.1331 12.8691 17.382 10.8869 17.382 7.7416ZM9.76519 10.8661H4.67701V4.97183H9.81144C11.6617 5.03442 12.6125 6.34367 12.6639 7.9033C12.6125 9.60898 11.6463 10.8348 9.76519 10.8661ZM134.055 24.428L127.78 14.34C130.273 12.8691 131.522 10.8869 131.522 7.7416C131.522 7.7416 131.501 0.647648 123.879 0.647648L114.14 0.689377V24.428H118.817V15.1589H123.088L128.685 24.428H134.055ZM123.905 10.8661H118.817V4.97183H123.951C125.801 5.03442 126.752 6.34367 126.804 7.9033C126.757 9.60898 125.791 10.8348 123.905 10.8661ZM58.0103 9.98975C55.163 9.56203 53.7856 9.2282 53.2614 8.59704C52.2232 7.32952 53.431 4.95618 57.1726 4.95618C59.0434 4.95618 60.4568 5.66557 61.5001 6.92788L64.661 3.83993C62.5846 1.73261 60.6058 0.522461 56.2578 0.522461C51.9559 0.522461 48.1321 3.28701 48.1321 7.48601C48.1321 12.1284 52.7114 13.6828 56.4531 14.1053C61.1249 14.58 61.1866 16.9533 61.1866 17.1776C61.1866 17.4488 60.724 19.9526 56.0522 19.9526C53.5595 19.7439 51.5756 18.5547 50.5374 17.2871L47.3817 20.3803C49.4581 22.4928 52.0433 24.3811 56.3862 24.3811C62.0758 24.3811 65.8122 21.1888 65.8122 17.3862C65.8071 12.3735 61.5772 10.527 58.0103 9.98975ZM77.0268 19.9526C74.5341 19.7439 72.5502 18.5547 71.512 17.2871L68.3563 20.3803C70.4327 22.4928 73.0179 24.3811 77.3608 24.3811C83.0503 24.3811 86.7868 21.1888 86.7868 17.3862C86.7868 12.3735 82.5569 10.5218 78.9901 9.98454C76.1428 9.55681 74.7654 9.22298 74.2411 8.59183C73.2029 7.32431 74.4107 4.95096 78.1523 4.95096C80.0231 4.95096 81.4365 5.66036 82.4799 6.92266L85.6407 3.83471C83.5592 1.7326 81.5804 0.522461 77.2324 0.522461C72.9305 0.522461 69.1067 3.28701 69.1067 7.48601C69.1067 12.1284 73.686 13.6828 77.4277 14.1053C82.0995 14.58 82.1612 16.9533 82.1612 17.1776C82.1612 17.4488 81.6986 19.9526 77.0268 19.9526ZM58.8532 36.1226L55.5947 44.4945H57.3319L57.8767 42.9923H61.459L62.0038 44.4945L63.7358 44.4893L60.4825 36.1226H58.8532ZM58.4781 41.49L59.7167 38.3447L60.9245 41.49H58.4781ZM51.9251 39.4401C50.9332 39.2888 50.45 39.1741 50.2702 38.9498C49.9052 38.5064 50.3267 37.6718 51.6321 37.6718C52.2849 37.6718 52.7783 37.917 53.138 38.3656L54.2379 37.2858C53.5132 36.5451 52.8245 36.1226 51.3083 36.1226C49.8127 36.1226 48.4764 37.0928 48.4764 38.5638C48.4764 40.1912 50.0697 40.7337 51.3752 40.8849C53.0044 41.0519 53.025 41.8812 53.025 41.9595C53.025 42.0534 52.8656 42.9349 51.2364 42.9349C50.3678 42.8619 49.674 42.4446 49.3142 42.0012L48.2143 43.0862C48.939 43.8269 49.8384 44.4893 51.3495 44.4893C53.3333 44.4893 54.6337 43.3678 54.6337 42.0377C54.6388 40.2799 53.1637 39.6279 51.9251 39.4401ZM134.95 36.1226L131.691 44.4945H133.428L133.973 42.9923H137.556L138.1 44.4945L139.832 44.4893L136.579 36.1226H134.95ZM134.569 41.49L135.808 38.3447L137.016 41.49H134.569ZM65.2417 44.4893H66.9018V40.9997H69.9855V39.4349H66.9018V37.6353H71.0854V36.06H65.2417V44.4893ZM74.2617 40.9997H77.5921V39.4349H74.2617V37.6353H78.7023V36.06L72.5965 36.0652V44.4893H79.0158V42.914H74.2617V40.9997ZM80.1259 37.6353H82.8962V44.4945H84.5562V37.6353H87.3265V36.06H80.1259V37.6353ZM92.1217 38.8141L90.1944 36.06H88.2465L91.2942 40.2747V44.4893H92.9543V40.2747L96.0021 36.06H94.0953L92.1217 38.8141ZM120.292 39.4349H116.422V36.06H114.761V44.4893H116.422V41.0049H120.292V44.4893L121.952 44.4841V36.0548H120.292V39.4349ZM125.719 40.9997H129.05V39.4349H125.719V37.6353H130.16V36.06L124.054 36.0652V44.4893H130.473V42.914H125.719V40.9997ZM142.957 36.06H141.297V44.4893H147.387V42.914H142.957V36.06ZM147.526 37.6353H150.296V44.4945H151.957V37.6353H154.727V36.06H147.526V37.6353ZM161.341 39.4349H157.471V36.06H155.811V44.4893H157.471V41.0049H161.341V44.4893L163.002 44.4841V36.0548H161.341V39.4349ZM107.561 42.4967C108.157 41.7978 108.404 41.3544 108.897 40.1077L107.823 39.5809C107.582 40.5146 107.345 41.0101 106.811 41.7195L104.945 39.8156C105.603 39.4975 105.839 39.3723 106.07 39.2001C106.646 38.7881 106.913 38.256 106.913 37.5936C106.913 36.4617 105.952 35.721 104.503 35.721C103.002 35.721 102.041 36.4825 102.041 37.677C102.041 38.2247 102.252 38.6942 102.74 39.2314L103.054 39.5705C102.365 39.9095 102.072 40.0973 101.738 40.4468C101.27 40.9423 101.049 41.4744 101.049 42.1212C101.049 42.768 101.28 43.3574 101.676 43.759C102.154 44.2441 102.894 44.4997 103.835 44.4997C104.4 44.4997 104.899 44.4058 105.366 44.2233C105.793 44.0564 106.076 43.8842 106.605 43.4617L106.769 43.6443C106.924 43.8112 107.104 44.0355 107.309 44.3224H109.365C108.887 43.8686 108.645 43.6234 108.311 43.2844L107.561 42.4967ZM104.518 36.7955C105.197 36.7955 105.623 37.145 105.623 37.7135C105.623 38.063 105.479 38.329 105.166 38.5481C105.001 38.6629 104.873 38.7255 104.195 39.0228L103.84 38.6524C103.516 38.3134 103.403 38.0787 103.403 37.7344C103.403 37.1554 103.83 36.7955 104.518 36.7955ZM103.953 43.3522C103.012 43.3522 102.411 42.8254 102.411 41.996C102.411 41.6048 102.555 41.2657 102.838 40.9997C103.069 40.7754 103.264 40.6502 103.789 40.3842L105.875 42.6063C105.258 43.1227 104.673 43.3522 103.953 43.3522Z" fill="black"/>
</svg>
